<svg xmlns="http://www.w3.org/2000/svg" xmlns:xlink="http://www.w3.org/1999/xlink" width="200" zoomAndPan="magnify" viewBox="0 0 150 149.999998" height="200" preserveAspectRatio="xMidYMid meet" version="1.0"><defs><clipPath id="b60ee8a477"><path d="M 11 1 L 139.21875 1 L 139.21875 150 L 11 150 Z M 11 1 " clip-rule="nonzero"/></clipPath></defs><g clip-path="url(#b60ee8a477)"><path fill="#000000" d="M 56.792969 149.46875 C 56.683594 149.339844 56.566406 149.007812 56.527344 148.734375 C 56.480469 148.394531 56.332031 148.234375 56.066406 148.234375 C 55.785156 148.234375 55.617188 148.027344 55.46875 147.507812 C 55.207031 146.582031 55.046875 146.425781 54.671875 146.738281 C 54.277344 147.066406 53.820312 146.875 53.539062 146.253906 C 53.40625 145.964844 53.140625 145.75 52.917969 145.75 C 52.25 145.75 52.566406 144.125 53.714844 141.648438 C 54.269531 140.460938 54.871094 139.085938 55.054688 138.59375 C 55.242188 138.101562 55.558594 137.414062 55.761719 137.066406 C 56.140625 136.414062 56.757812 132.882812 56.757812 131.363281 C 56.757812 130.636719 56.59375 130.292969 55.644531 129.03125 C 55.035156 128.21875 54.359375 127.21875 54.148438 126.808594 C 53.34375 125.257812 52.445312 120.199219 52.320312 116.527344 L 52.277344 115.246094 L 50.980469 114.988281 C 50.191406 114.828125 49.355469 114.496094 48.835938 114.132812 C 48.367188 113.804688 47.871094 113.539062 47.730469 113.539062 C 47.59375 113.539062 47.125 113.90625 46.691406 114.351562 C 44.4375 116.6875 34.515625 124.832031 33.410156 125.25 C 32.410156 125.628906 31.605469 124.449219 32.414062 123.785156 C 32.605469 123.628906 34.277344 122.324219 36.132812 120.882812 C 39.703125 118.109375 45.132812 113.578125 46.058594 112.597656 L 46.609375 112.015625 L 46.347656 110.457031 L 46.082031 108.898438 L 45.167969 108.632812 C 43.066406 108.023438 41.289062 106.265625 40.925781 104.4375 L 40.695312 103.296875 L 39.359375 103.179688 C 38.320312 103.089844 37.839844 102.933594 37.1875 102.476562 C 36.242188 101.8125 35.328125 100.230469 35.09375 98.84375 L 34.949219 97.972656 L 33.753906 97.9375 C 32.386719 97.898438 31.507812 97.511719 30.40625 96.464844 C 29.183594 95.308594 28.789062 94.382812 28.792969 92.703125 C 28.792969 91.3125 28.773438 91.25 28.289062 91.144531 C 25.957031 90.632812 24.449219 89.207031 24 87.089844 C 23.917969 86.707031 23.808594 86.324219 23.757812 86.234375 C 23.707031 86.148438 22.941406 86.847656 22.054688 87.792969 C 20.40625 89.554688 13.765625 95.03125 12.589844 95.605469 C 12.101562 95.839844 11.84375 95.871094 11.59375 95.710938 C 10.972656 95.324219 11.082031 94.730469 11.890625 94.078125 C 12.308594 93.742188 13.1875 93.035156 13.84375 92.503906 C 14.5 91.972656 15.890625 90.886719 16.929688 90.085938 C 18.875 88.59375 21.867188 85.785156 22.941406 84.445312 L 23.550781 83.691406 L 23.136719 83.25 C 21.640625 81.660156 21.804688 78.628906 23.476562 77.0625 C 23.90625 76.65625 24.101562 76.289062 24.101562 75.867188 C 24.113281 74.628906 25.03125 73.261719 26.394531 72.464844 C 26.707031 72.28125 26.722656 72.167969 26.519531 71.589844 C 25.867188 69.71875 26.660156 67.828125 28.488281 66.902344 C 29.363281 66.460938 29.496094 66.320312 29.390625 65.949219 C 29.0625 64.800781 29.058594 64.382812 29.367188 63.449219 C 29.601562 62.75 29.949219 62.242188 30.5 61.78125 C 31.222656 61.183594 31.3125 61.003906 31.46875 59.839844 C 32.796875 49.871094 33.933594 44.539062 35.34375 41.65625 C 36.242188 39.820312 40.09375 33.351562 42.507812 29.625 C 46.789062 23.011719 46.851562 22.945312 50.445312 20.953125 C 54.640625 18.632812 55.707031 17.957031 57.75 16.324219 C 61.589844 13.25 63.652344 12.128906 64.496094 12.660156 C 64.664062 12.765625 64.984375 13.101562 65.210938 13.402344 C 65.566406 13.878906 65.617188 14.226562 65.601562 16.070312 C 65.582031 17.949219 65.5 18.429688 64.871094 20.277344 C 64.480469 21.425781 63.742188 23.375 63.230469 24.605469 C 62.71875 25.839844 62.332031 26.933594 62.367188 27.039062 C 62.457031 27.300781 66.632812 21.765625 67.878906 19.730469 C 69.109375 17.730469 69.457031 17.277344 74.042969 11.761719 C 77.789062 7.253906 78.914062 6.128906 81.394531 4.425781 C 83.261719 3.140625 84.78125 2.640625 85.855469 2.964844 C 86.871094 3.265625 87.964844 4.371094 88.132812 5.261719 C 88.207031 5.648438 88.367188 5.957031 88.492188 5.953125 C 88.617188 5.945312 89.078125 5.492188 89.511719 4.941406 C 90.429688 3.78125 92.300781 2.308594 93.597656 1.722656 C 96.570312 0.386719 99.765625 2.171875 99.765625 5.167969 C 99.765625 5.769531 99.644531 6.773438 99.496094 7.398438 C 99.347656 8.023438 99.277344 8.582031 99.332031 8.640625 C 99.390625 8.699219 99.804688 8.75 100.25 8.75 C 101.828125 8.757812 103.402344 9.851562 104.042969 11.375 C 104.460938 12.382812 104.433594 14.53125 103.976562 16.105469 C 103.6875 17.105469 102.246094 20.929688 101.222656 23.410156 C 101.15625 23.578125 101.324219 23.660156 101.746094 23.660156 C 102.519531 23.660156 103.617188 24.105469 104.507812 24.78125 C 104.878906 25.066406 105.25 25.21875 105.335938 25.125 C 105.421875 25.03125 105.691406 24.285156 105.9375 23.46875 C 107.082031 19.628906 108.839844 17.6875 111.164062 17.699219 C 112.304688 17.707031 113.449219 18.261719 114.355469 19.246094 L 115.101562 20.058594 L 115.949219 19.574219 C 117.121094 18.90625 118.171875 18.933594 119.324219 19.664062 C 120.496094 20.40625 121.359375 22.089844 121.761719 24.433594 C 121.921875 25.351562 122.136719 26.191406 122.242188 26.296875 C 122.347656 26.402344 122.828125 26.503906 123.308594 26.519531 C 125.503906 26.609375 127.464844 29.40625 129.816406 35.789062 C 130.359375 37.265625 131.34375 39.863281 132.007812 41.566406 C 133.195312 44.625 134.816406 50.273438 134.816406 51.371094 C 134.816406 51.6875 135.042969 52.203125 135.324219 52.539062 C 136.566406 54.011719 137.082031 55.757812 137.511719 59.980469 C 137.675781 61.605469 138.132812 64.855469 138.527344 67.207031 C 139.109375 70.660156 139.226562 71.792969 139.132812 73.105469 C 139.003906 75.015625 138.320312 77.1875 137.308594 78.910156 C 136.222656 80.757812 136.042969 81.296875 135.402344 84.617188 C 135.074219 86.300781 134.632812 88.246094 134.417969 88.941406 C 133.617188 91.53125 131.597656 93.851562 128.691406 95.527344 L 127.054688 96.472656 L 127.203125 97.300781 C 127.457031 98.710938 127.328125 100.277344 126.894531 101.121094 C 125.902344 103.042969 124.332031 104.28125 122.578125 104.519531 C 121.707031 104.640625 121.683594 104.664062 121.390625 105.671875 C 121.003906 106.988281 120.015625 107.992188 118.191406 108.914062 C 116.589844 109.722656 114.6875 109.980469 113.417969 109.5625 L 112.671875 109.316406 L 111.792969 110.320312 C 110 112.367188 107.199219 113.03125 104.816406 111.972656 L 103.792969 111.515625 L 102.726562 112.613281 C 101.839844 113.527344 101.457031 113.765625 100.417969 114.054688 C 99.453125 114.320312 99.171875 114.484375 99.171875 114.773438 C 99.171875 114.980469 99.4375 116.152344 99.765625 117.375 C 100.335938 119.527344 100.617188 121.140625 101.667969 128.320312 C 102.316406 132.738281 102.316406 133.359375 101.648438 133.664062 C 100.796875 134.050781 100.488281 133.683594 100.335938 132.109375 C 100 128.679688 98.703125 120.160156 98.167969 117.886719 C 97.84375 116.503906 97.578125 115.140625 97.578125 114.855469 C 97.578125 114.410156 97.398438 114.253906 96.273438 113.746094 C 95.554688 113.417969 94.695312 112.925781 94.363281 112.648438 L 93.761719 112.140625 L 92.851562 112.941406 C 91.125 114.457031 88.742188 114.699219 86.164062 113.625 C 84.332031 112.859375 84.261719 112.847656 83.777344 113.304688 C 83.042969 113.996094 81.953125 114.332031 80.46875 114.332031 C 78.925781 114.332031 77.164062 113.792969 76.566406 113.136719 C 76.371094 112.917969 76.144531 112.742188 76.066406 112.742188 C 75.988281 112.742188 75.410156 113.050781 74.785156 113.425781 C 73.257812 114.34375 71.976562 114.503906 70.390625 113.964844 L 69.203125 113.5625 L 68.507812 114.222656 C 67.703125 114.984375 67.1875 115.273438 66.0625 115.597656 C 65.621094 115.726562 65.191406 115.964844 65.109375 116.125 C 65.027344 116.289062 64.863281 117.296875 64.742188 118.367188 C 64.621094 119.4375 63.976562 122.480469 63.304688 125.128906 C 61.765625 131.230469 61.664062 131.671875 61.253906 134.316406 C 60.941406 136.332031 60.9375 136.597656 61.230469 137.699219 C 61.726562 139.582031 62.210938 143.746094 62.054688 144.792969 C 61.890625 145.886719 61.226562 146.867188 60.855469 146.558594 C 60.722656 146.449219 60.277344 146.414062 59.863281 146.480469 C 59.066406 146.609375 58.980469 146.734375 58.558594 148.296875 C 58.425781 148.78125 58.183594 149.195312 57.992188 149.253906 C 57.804688 149.3125 57.503906 149.4375 57.320312 149.535156 C 57.109375 149.648438 56.921875 149.625 56.792969 149.472656 Z M 59.328125 134.554688 C 59.464844 133.988281 59.625 132.851562 59.679688 132.03125 C 59.785156 130.574219 59.726562 130.105469 59.054688 127.066406 C 58.777344 125.8125 58.761719 125.371094 58.960938 124.183594 C 59.09375 123.414062 59.324219 122.429688 59.476562 121.996094 C 59.910156 120.777344 60.066406 118.339844 59.722656 118.242188 C 57.542969 117.621094 57.03125 117.402344 56.355469 116.789062 C 55.929688 116.410156 55.433594 115.695312 55.246094 115.203125 C 54.949219 114.429688 54.835938 114.320312 54.386719 114.371094 C 53.949219 114.421875 53.859375 114.542969 53.808594 115.167969 C 53.667969 116.863281 54.882812 124.070312 55.574219 125.632812 C 55.78125 126.109375 56.402344 127.0625 56.953125 127.753906 C 57.507812 128.445312 58.089844 129.328125 58.253906 129.71875 C 58.609375 130.566406 58.636719 132.714844 58.320312 134.300781 C 58.132812 135.226562 58.140625 135.480469 58.351562 135.609375 C 58.816406 135.894531 59.078125 135.617188 59.328125 134.554688 Z M 62.011719 123.238281 C 62.75 120.429688 63.332031 117.457031 63.324219 116.542969 C 63.324219 116.035156 63.308594 116.039062 62.652344 116.8125 C 62.035156 117.539062 61.976562 117.734375 61.882812 119.296875 C 61.824219 120.230469 61.53125 121.945312 61.230469 123.109375 C 60.878906 124.46875 60.734375 125.417969 60.824219 125.773438 C 60.902344 126.082031 61.035156 126.242188 61.128906 126.144531 C 61.222656 126.046875 61.621094 124.738281 62.011719 123.238281 Z M 60.8125 115.910156 C 61.605469 115.285156 61.546875 114.15625 60.671875 113.207031 C 60.097656 112.578125 59.863281 112.46875 58.917969 112.390625 C 57.886719 112.304688 57.796875 112.335938 57.289062 112.933594 C 56.996094 113.28125 56.757812 113.785156 56.757812 114.046875 C 56.757812 114.707031 57.691406 115.683594 58.648438 116.023438 C 59.75 116.410156 60.203125 116.386719 60.8125 115.910156 Z M 66.496094 113.347656 C 67.476562 112.847656 67.703125 112.199219 67.242188 111.226562 C 66.652344 109.996094 65.164062 109.453125 63.789062 109.972656 C 63.121094 110.222656 62.132812 111.121094 62.132812 111.476562 C 62.132812 111.753906 62.910156 113.023438 63.441406 113.613281 C 63.863281 114.082031 65.296875 113.957031 66.496094 113.347656 Z M 52.871094 112.710938 C 53.347656 112.332031 53.40625 112.175781 53.320312 111.441406 C 53.203125 110.378906 52.746094 109.769531 51.425781 108.894531 C 49.433594 107.578125 48.453125 107.796875 48.25 109.605469 C 48.128906 110.675781 48.511719 111.515625 49.445312 112.226562 C 50.761719 113.230469 51.988281 113.402344 52.871094 112.710938 Z M 81.433594 112.417969 C 82.359375 112.230469 83.242188 111.328125 83.242188 110.566406 C 83.242188 108.644531 81.503906 107.898438 78.863281 108.683594 C 77.371094 109.125 76.871094 109.496094 76.871094 110.152344 C 76.871094 111.726562 79.171875 112.867188 81.433594 112.417969 Z M 100.597656 112.023438 C 101.714844 111.460938 102.246094 110.265625 101.769531 109.375 C 101.664062 109.179688 101.109375 108.816406 100.53125 108.570312 C 99.101562 107.957031 97.351562 108.082031 96.046875 108.890625 C 94.773438 109.683594 94.605469 110.007812 95.105469 110.695312 C 95.554688 111.316406 97.363281 112.285156 98.277344 112.394531 C 99.074219 112.488281 99.949219 112.347656 100.597656 112.023438 Z M 73.878906 111.78125 C 74.617188 111.238281 74.964844 110.519531 74.800781 109.882812 C 74.527344 108.785156 72.125 108.214844 70.546875 108.871094 C 68.59375 109.6875 68.613281 110.886719 70.597656 111.945312 C 71.546875 112.453125 73.078125 112.378906 73.878906 111.78125 Z M 90.796875 112.054688 C 91.609375 111.632812 92.402344 110.609375 92.402344 109.980469 C 92.402344 109.355469 91.871094 108.714844 90.972656 108.25 C 89.65625 107.570312 86.671875 108.027344 85.527344 109.085938 C 84.496094 110.039062 85.300781 111.433594 87.226562 112.035156 C 88.410156 112.40625 90.09375 112.414062 90.796875 112.054688 Z M 56.160156 111.613281 C 56.878906 110.859375 57.757812 110.554688 59.242188 110.554688 C 60.515625 110.554688 60.558594 110.539062 61.289062 109.726562 C 61.734375 109.234375 62.535156 108.667969 63.277344 108.332031 L 64.523438 107.765625 L 64.523438 106.496094 C 64.523438 105.515625 64.386719 104.921875 63.933594 103.910156 C 63.609375 103.191406 63.289062 102.601562 63.222656 102.601562 C 63.152344 102.601562 62.6875 102.9375 62.1875 103.347656 C 61.6875 103.757812 59.789062 105.175781 57.972656 106.503906 C 55.550781 108.265625 54.675781 109.011719 54.707031 109.285156 C 54.78125 109.96875 55.417969 112.144531 55.539062 112.140625 C 55.605469 112.140625 55.886719 111.902344 56.160156 111.613281 Z M 109.464844 109.925781 C 109.886719 109.644531 110.402344 109.101562 110.609375 108.714844 C 110.9375 108.109375 110.953125 107.929688 110.738281 107.410156 C 110.25 106.234375 108.078125 105.800781 106.441406 106.554688 C 105.609375 106.941406 104.152344 108.273438 104.152344 108.65625 C 104.152344 109.109375 104.828125 109.816406 105.621094 110.183594 C 106.765625 110.71875 108.429688 110.605469 109.464844 109.925781 Z M 68.320312 108.25 C 69.09375 107.421875 70.277344 106.925781 71.714844 106.820312 C 73.167969 106.71875 74.179688 106.960938 75.308594 107.683594 L 76.035156 108.148438 L 77.101562 107.582031 C 79.242188 106.4375 81.683594 106.316406 83.390625 107.269531 L 84.304688 107.78125 L 85.082031 107.265625 C 86.160156 106.554688 88.675781 105.925781 89.8125 106.089844 C 91.0625 106.265625 92.453125 106.898438 93.113281 107.585938 C 93.421875 107.90625 93.738281 108.167969 93.824219 108.167969 C 93.90625 108.167969 94.390625 107.890625 94.894531 107.546875 C 96.945312 106.167969 99.019531 106.027344 101.769531 107.082031 L 102.675781 107.429688 L 103.703125 106.429688 C 105.105469 105.066406 106.296875 104.515625 108.058594 104.425781 C 109.195312 104.363281 109.671875 104.433594 110.449219 104.78125 L 111.417969 105.214844 L 111.816406 104.652344 C 112.769531 103.308594 114.261719 102.050781 115.417969 101.617188 C 116.140625 101.347656 116.972656 100.824219 117.589844 100.246094 C 119.351562 98.601562 121.359375 97.261719 124.648438 95.542969 C 128.535156 93.507812 129.261719 93.023438 130.652344 91.519531 C 132.371094 89.660156 132.785156 88.550781 133.804688 83.113281 C 134.132812 81.363281 134.390625 80.648438 135.414062 78.671875 C 136.707031 76.179688 137.40625 73.949219 137.40625 72.324219 C 137.40625 71.257812 136.484375 65.902344 136.214844 65.417969 C 136.125 65.253906 135.945312 65.144531 135.8125 65.175781 C 135.328125 65.289062 133.203125 64.613281 132.421875 64.09375 C 131.488281 63.480469 130.765625 62.355469 130.425781 60.992188 C 130.296875 60.472656 130.121094 60.046875 130.039062 60.046875 C 129.863281 60.046875 129.875 60 128.84375 64.050781 C 127.964844 67.511719 126.695312 71.296875 125.839844 72.996094 C 125.53125 73.609375 124.519531 75.28125 123.585938 76.707031 C 121.292969 80.222656 120.519531 80.746094 116.496094 81.5 C 115.347656 81.71875 113.421875 82.039062 112.214844 82.214844 C 107.203125 82.953125 98.878906 85.058594 93.289062 86.996094 C 89.613281 88.273438 88.042969 88.605469 87.878906 88.144531 C 87.746094 87.761719 89.097656 87.050781 92.601562 85.65625 C 96.089844 84.273438 97.992188 83.703125 104.050781 82.230469 C 109.128906 80.996094 109.328125 80.941406 109.328125 80.71875 C 109.328125 80.613281 109.199219 80.527344 109.042969 80.527344 C 108.886719 80.527344 108.148438 80.210938 107.402344 79.820312 L 106.042969 79.117188 L 105.148438 79.570312 C 104.492188 79.902344 103.816406 80.042969 102.648438 80.097656 C 100.742188 80.183594 99.773438 79.953125 98.511719 79.117188 C 97.632812 78.539062 97.542969 78.519531 97.105469 78.804688 C 96.851562 78.972656 96.121094 79.261719 95.484375 79.445312 C 93.496094 80.023438 91.777344 79.578125 90.121094 78.0625 C 89.691406 77.667969 89.332031 77.347656 89.328125 77.351562 C 89.320312 77.351562 88.875 77.484375 88.339844 77.648438 C 86.96875 78.0625 86.25 78.019531 84.417969 77.417969 L 82.816406 76.886719 L 81.585938 78.074219 C 80.910156 78.726562 79.90625 79.609375 79.359375 80.03125 C 76.664062 82.121094 75.121094 83.554688 73.703125 85.289062 C 71.1875 88.363281 67.535156 93.453125 66.917969 94.746094 C 65.925781 96.828125 64.324219 100.730469 64.324219 101.0625 C 64.324219 101.238281 64.726562 102.207031 65.21875 103.21875 C 66.03125 104.886719 66.117188 105.195312 66.117188 106.507812 L 66.117188 107.960938 L 66.863281 108.355469 C 67.8125 108.855469 67.753906 108.859375 68.320312 108.25 Z M 82.046875 83.347656 C 82.046875 82.886719 84.046875 82.109375 85.984375 81.816406 C 90.480469 81.140625 95.523438 81.710938 95.746094 82.925781 C 95.792969 83.195312 95.300781 83.230469 91.761719 83.222656 C 89.539062 83.214844 86.445312 83.292969 84.886719 83.394531 C 82.792969 83.527344 82.046875 83.515625 82.046875 83.347656 Z M 116.792969 107.425781 C 118.183594 106.9375 119.683594 105.476562 119.683594 104.617188 C 119.683594 102.625 116.679688 102.410156 114.585938 104.25 C 113.132812 105.527344 112.757812 106.621094 113.511719 107.375 C 114.023438 107.882812 115.425781 107.90625 116.792969 107.421875 Z M 54.765625 106.449219 C 57.28125 104.78125 60.726562 102.152344 61.675781 101.175781 C 62.324219 100.507812 62.8125 99.601562 63.871094 97.121094 C 65.769531 92.679688 66.304688 91.835938 70.96875 85.917969 C 73.621094 82.554688 74.714844 81.5 78.542969 78.597656 C 81.53125 76.335938 82 75.816406 81.652344 75.164062 C 81.464844 74.816406 81.300781 74.75 80.882812 74.84375 C 80.59375 74.914062 79.84375 75.023438 79.21875 75.089844 C 78.234375 75.195312 77.929688 75.140625 76.980469 74.679688 C 76.378906 74.382812 75.566406 73.769531 75.175781 73.3125 C 74.464844 72.488281 74.457031 72.484375 73.027344 72.464844 C 71.386719 72.445312 70.277344 71.988281 69.433594 70.984375 C 68.789062 70.222656 68.441406 68.980469 68.601562 68.027344 C 68.71875 67.332031 68.683594 67.277344 67.570312 66.46875 C 66.292969 65.539062 64.949219 63.964844 64.589844 62.976562 C 64.460938 62.625 64.347656 61.867188 64.339844 61.296875 C 64.324219 60.34375 64.273438 60.230469 63.714844 59.941406 C 62.015625 59.066406 60.546875 56.980469 60.542969 55.445312 C 60.542969 54.796875 60.445312 54.660156 59.671875 54.207031 C 57.976562 53.214844 56.972656 51.699219 56.808594 49.875 L 56.703125 48.714844 L 56.039062 48.714844 C 54.992188 48.714844 53.179688 47.933594 52.257812 47.082031 C 51.421875 46.3125 51.398438 46.308594 50.808594 46.613281 C 50.414062 46.816406 49.664062 46.925781 48.652344 46.925781 C 46.578125 46.933594 44.617188 47.371094 42.910156 48.210938 C 41.230469 49.042969 40.230469 49.292969 40.230469 48.882812 C 40.230469 48.351562 41.402344 47.191406 42.554688 46.582031 C 44.222656 45.695312 45.195312 45.476562 47.988281 45.347656 L 50.46875 45.234375 L 50.71875 43.984375 C 50.859375 43.300781 51.234375 42.136719 51.554688 41.402344 C 51.875 40.664062 52.417969 39.257812 52.761719 38.273438 C 53.105469 37.289062 53.714844 35.785156 54.117188 34.929688 C 54.667969 33.75 54.792969 33.292969 54.636719 33.046875 C 54.21875 32.382812 52.558594 31.441406 51.429688 31.222656 C 48.867188 30.734375 48.488281 30.480469 49.628906 30.003906 C 51.25 29.332031 53.460938 29.890625 55 31.363281 L 55.730469 32.0625 L 56.675781 31.292969 C 57.773438 30.394531 59.3125 28.597656 60.027344 27.382812 C 60.730469 26.183594 63.28125 19.707031 63.628906 18.234375 C 64.011719 16.609375 64.019531 14.734375 63.644531 14.589844 C 63.269531 14.445312 62.113281 15.195312 59.148438 17.5 C 57.644531 18.667969 55.167969 20.289062 52.902344 21.597656 C 50.835938 22.785156 48.816406 24.042969 48.410156 24.390625 C 48.003906 24.734375 47.128906 25.855469 46.464844 26.875 C 42.0625 33.652344 40.988281 35.347656 38.949219 38.757812 C 37.691406 40.855469 36.480469 43.0625 36.257812 43.664062 C 35.53125 45.597656 33.773438 54.714844 33.253906 59.253906 C 33.144531 60.183594 32.925781 61.835938 32.765625 62.929688 C 32.347656 65.796875 31.695312 70.863281 31.546875 72.429688 C 31.476562 73.167969 31.34375 73.820312 31.25 73.878906 C 31.152344 73.9375 31.132812 74.515625 31.199219 75.160156 C 31.335938 76.46875 31.121094 77.21875 30.289062 78.34375 C 29.855469 78.929688 29.773438 79.257812 29.761719 80.429688 C 29.753906 81.195312 29.636719 82.019531 29.507812 82.265625 C 29.289062 82.667969 29.335938 82.75 30.050781 83.199219 C 31.558594 84.152344 32.28125 85.539062 32.332031 87.589844 L 32.363281 88.921875 L 33.277344 89.265625 C 34.996094 89.917969 36.601562 91.289062 37.140625 92.558594 C 37.234375 92.777344 37.359375 93.449219 37.425781 94.050781 L 37.539062 95.144531 L 38.835938 95.257812 C 40.027344 95.367188 41.210938 95.816406 42.035156 96.480469 C 42.792969 97.09375 43.613281 98.515625 43.734375 99.429688 C 43.859375 100.371094 43.875 100.390625 44.683594 100.519531 C 45.949219 100.722656 47.078125 101.289062 48.109375 102.234375 C 49.1875 103.222656 49.777344 104.355469 49.78125 105.445312 C 49.785156 106.132812 49.855469 106.226562 50.535156 106.488281 C 50.945312 106.648438 51.59375 106.945312 51.976562 107.152344 C 52.359375 107.359375 52.765625 107.539062 52.875 107.550781 C 52.984375 107.5625 53.835938 107.066406 54.765625 106.449219 Z M 52.773438 79.070312 C 52.773438 78.742188 54.199219 75.710938 56.140625 71.910156 C 58.785156 66.726562 60.140625 63.457031 60.140625 62.261719 C 60.140625 61.367188 60.40625 61.078125 60.867188 61.464844 C 61.765625 62.207031 61.613281 63.675781 60.300781 66.960938 C 59.398438 69.222656 57.132812 73.816406 56.109375 75.457031 C 55.171875 76.960938 53.363281 79.136719 53.050781 79.136719 C 52.898438 79.136719 52.773438 79.109375 52.773438 79.070312 Z M 59.851562 77.558594 C 59.695312 77.308594 60.066406 75.03125 60.421875 74.023438 C 60.574219 73.585938 61.214844 72.140625 61.847656 70.8125 C 62.742188 68.925781 63.074219 68.398438 63.382812 68.398438 C 63.730469 68.398438 63.765625 68.503906 63.683594 69.246094 C 63.628906 69.710938 63.035156 71.433594 62.359375 73.074219 C 60.53125 77.511719 60.195312 78.113281 59.851562 77.558594 Z M 47.550781 106.667969 C 48.355469 106.105469 48.058594 104.472656 46.964844 103.457031 C 46.328125 102.859375 44.875 102.246094 43.925781 102.167969 C 43.234375 102.113281 43.125 102.160156 43 102.601562 C 42.652344 103.8125 42.792969 104.5625 43.523438 105.367188 C 44.792969 106.769531 46.578125 107.347656 47.550781 106.667969 Z M 122.980469 102.511719 C 124.699219 101.792969 125.914062 99.441406 125.339844 97.945312 C 125.144531 97.441406 124.769531 97.5625 122.914062 98.707031 C 120.542969 100.171875 120.351562 100.398438 120.652344 101.402344 C 120.886719 102.171875 121.5 102.800781 122.023438 102.800781 C 122.167969 102.800781 122.597656 102.667969 122.980469 102.511719 Z M 41.007812 101.117188 C 43.238281 99.964844 41.054688 96.835938 38.015625 96.835938 C 37.296875 96.835938 37.246094 96.875 37.039062 97.648438 C 36.410156 99.976562 38.9375 102.1875 41.007812 101.117188 Z M 34.742188 95.914062 C 35.164062 95.753906 35.648438 94.808594 35.648438 94.148438 C 35.648438 93.070312 34.640625 91.851562 33.117188 91.089844 C 31.878906 90.46875 31.542969 90.539062 31.050781 91.5 C 30.269531 93.03125 30.921875 94.929688 32.5 95.703125 C 33.179688 96.039062 34.175781 96.132812 34.742188 95.914062 Z M 30.078125 88.914062 C 30.445312 88.621094 30.527344 88.351562 30.527344 87.46875 C 30.527344 85.996094 30.089844 85.234375 28.824219 84.507812 C 27.457031 83.726562 27.058594 83.746094 26.378906 84.636719 C 25.371094 85.957031 25.808594 87.878906 27.339844 88.863281 C 28.15625 89.382812 29.46875 89.410156 30.078125 88.914062 Z M 27.0625 82.007812 C 27.574219 81.800781 27.925781 81.496094 28.082031 81.128906 C 28.453125 80.226562 28.273438 79.863281 27.273438 79.535156 C 26.777344 79.371094 26.039062 79.027344 25.628906 78.769531 C 24.734375 78.207031 24.410156 78.375 24.089844 79.574219 C 23.503906 81.746094 24.886719 82.875 27.0625 82.007812 Z M 116.402344 79.714844 C 119.898438 79.066406 120.472656 78.652344 122.328125 75.421875 C 122.628906 74.894531 123.191406 73.972656 123.570312 73.371094 C 123.949219 72.769531 124.261719 72.207031 124.261719 72.125 C 124.265625 72.039062 124.058594 71.890625 123.804688 71.792969 C 123.550781 71.699219 123.019531 71.402344 122.625 71.132812 C 122.230469 70.867188 121.378906 70.449219 120.730469 70.207031 C 120.085938 69.96875 118.769531 69.179688 117.8125 68.464844 C 115.503906 66.734375 114.070312 66.222656 111.515625 66.214844 C 109.367188 66.210938 107.746094 65.832031 105 64.691406 C 103.050781 63.882812 100.308594 63.195312 97.191406 62.726562 C 94.847656 62.375 94.488281 62.203125 94.820312 61.589844 C 95.023438 61.207031 95.160156 61.191406 97.152344 61.308594 C 98.320312 61.375 100.109375 61.609375 101.136719 61.832031 C 102.160156 62.050781 103.070312 62.1875 103.152344 62.136719 C 103.238281 62.085938 103.371094 61.527344 103.445312 60.894531 C 103.523438 60.265625 103.949219 57.648438 104.398438 55.078125 L 105.214844 50.402344 L 105.265625 43.941406 C 105.292969 40.386719 105.417969 36.675781 105.546875 35.691406 C 106.039062 31.867188 105.984375 28.0625 105.441406 28.171875 C 105.339844 28.191406 105.085938 28.863281 104.886719 29.664062 C 104.683594 30.460938 103.679688 33.085938 102.648438 35.492188 C 101.621094 37.902344 100.753906 40.09375 100.722656 40.359375 C 100.667969 40.824219 100.742188 40.863281 102.121094 41.074219 C 103.742188 41.320312 104.386719 41.730469 103.960938 42.242188 C 103.613281 42.660156 102.773438 42.628906 101.417969 42.152344 C 100.238281 41.738281 100.101562 41.769531 99.882812 42.488281 C 99.730469 42.988281 100.054688 43.21875 101.195312 43.421875 C 102.105469 43.585938 102.488281 43.984375 102.070312 44.332031 C 101.882812 44.488281 101.320312 44.550781 100.550781 44.507812 L 99.328125 44.4375 L 98.386719 47.222656 C 97.867188 48.753906 97.167969 50.675781 96.832031 51.496094 C 96.496094 52.316406 96.28125 53.050781 96.351562 53.121094 C 96.425781 53.195312 96.949219 53.164062 97.519531 53.050781 C 98.75 52.800781 100.234375 52.984375 100.6875 53.4375 C 100.988281 53.738281 100.980469 53.789062 100.550781 54.136719 C 100.152344 54.460938 99.796875 54.503906 97.886719 54.453125 L 95.6875 54.398438 L 94.480469 58.070312 C 93.078125 62.332031 92.027344 64.632812 90.046875 67.785156 C 88.746094 69.851562 88.308594 70.984375 88.808594 70.984375 C 88.914062 70.984375 89.476562 71.472656 90.058594 72.070312 L 91.121094 73.152344 L 91.972656 72.9375 C 93.371094 72.582031 95.667969 73.085938 97.199219 74.082031 C 97.703125 74.410156 97.761719 74.398438 99.089844 73.746094 C 100.355469 73.125 100.601562 73.074219 102.355469 73.074219 C 104.046875 73.074219 104.371094 73.132812 105.375 73.640625 L 106.5 74.210938 L 107.796875 73.691406 C 108.789062 73.296875 109.449219 73.171875 110.570312 73.171875 L 112.042969 73.171875 L 112.898438 71.53125 C 113.984375 69.449219 114.085938 69.324219 114.433594 69.613281 C 114.582031 69.738281 114.707031 70.050781 114.707031 70.308594 C 114.707031 70.921875 113.867188 72.796875 113.433594 73.15625 C 113.121094 73.414062 113.148438 73.488281 113.789062 74.148438 C 114.605469 74.980469 115.105469 76.074219 115.097656 76.992188 C 115.09375 77.75 114.519531 79.113281 114.039062 79.511719 C 113.65625 79.828125 113.609375 80.132812 113.941406 80.132812 C 114.066406 80.132812 115.175781 79.945312 116.402344 79.714844 Z M 115.703125 75.671875 C 115.703125 75.515625 116.109375 75.046875 116.613281 74.628906 C 117.113281 74.210938 117.964844 73.488281 118.511719 73.023438 C 120.03125 71.722656 120.800781 71.984375 119.871094 73.488281 C 119.425781 74.210938 118.359375 75.117188 117.355469 75.628906 C 116.558594 76.035156 115.703125 76.058594 115.703125 75.671875 Z M 106.535156 71.226562 C 105.316406 70.007812 104.339844 66.230469 105.203125 66.054688 C 105.480469 65.996094 105.753906 66.402344 106.453125 67.898438 C 106.949219 68.949219 107.617188 70.179688 107.941406 70.628906 C 108.394531 71.253906 108.480469 71.503906 108.308594 71.710938 C 107.925781 72.171875 107.320312 72.007812 106.535156 71.226562 Z M 97.40625 56.667969 C 96.726562 56.507812 96.335938 56.140625 96.457031 55.773438 C 96.492188 55.664062 97.113281 55.574219 97.839844 55.574219 C 98.847656 55.574219 99.242188 55.660156 99.515625 55.933594 C 99.855469 56.28125 99.855469 56.304688 99.484375 56.582031 C 99.066406 56.890625 98.457031 56.914062 97.40625 56.667969 Z M 112.742188 78.179688 C 113.761719 77.039062 113.339844 75.632812 111.808594 75.046875 C 111.019531 74.746094 110.695312 74.726562 109.503906 74.910156 C 107.652344 75.199219 107.136719 75.546875 107.136719 76.519531 C 107.136719 77.949219 108.789062 78.988281 110.898438 78.878906 C 112.039062 78.824219 112.226562 78.75 112.742188 78.179688 Z M 104.066406 77.964844 C 105.625 77.257812 105.710938 75.65625 104.222656 75.035156 C 102.320312 74.242188 98.574219 75.113281 98.574219 76.347656 C 98.574219 76.824219 99.601562 77.730469 100.496094 78.050781 C 101.578125 78.4375 103.109375 78.398438 104.066406 77.964844 Z M 28.582031 77.265625 C 29.554688 76.292969 29.460938 74.417969 28.429688 74.144531 C 27.554688 73.914062 26.535156 74.296875 26.175781 74.984375 C 25.644531 76.015625 26.097656 77.046875 27.289062 77.523438 C 28 77.804688 28.050781 77.796875 28.582031 77.265625 Z M 95.644531 77.476562 C 97.199219 76.828125 97.066406 75.847656 95.3125 75.046875 C 94.519531 74.683594 93.867188 74.550781 92.804688 74.53125 C 91.21875 74.5 91.015625 74.628906 91.011719 75.671875 C 91.003906 77.207031 93.738281 78.273438 95.644531 77.476562 Z M 87.972656 75.839844 C 88.796875 75.667969 89.214844 75.1875 89.214844 74.414062 C 89.214844 73.511719 88.222656 72.5 87.015625 72.175781 C 85.921875 71.878906 83.933594 71.875 83.171875 72.167969 C 82.679688 72.351562 82.621094 72.457031 82.734375 72.925781 C 83.140625 74.582031 83.96875 75.445312 85.566406 75.863281 C 86.484375 76.105469 86.714844 76.105469 87.972656 75.839844 Z M 80.375 72.90625 C 80.796875 72.542969 80.886719 72.335938 80.78125 71.929688 C 80.488281 70.761719 78.667969 69.394531 77.410156 69.394531 C 76.992188 69.394531 76.792969 69.5625 76.476562 70.179688 C 75.953125 71.207031 75.96875 71.425781 76.609375 72.1875 C 77.640625 73.410156 79.398438 73.746094 80.375 72.90625 Z M 30.277344 70.171875 C 30.335938 69.144531 30.328125 68.230469 30.261719 68.144531 C 30.070312 67.898438 29.113281 68.339844 28.570312 68.921875 C 27.957031 69.585938 27.929688 70.539062 28.507812 71.273438 C 28.9375 71.816406 29.605469 72.195312 29.972656 72.097656 C 30.082031 72.070312 30.21875 71.203125 30.277344 70.171875 Z M 73.5625 70.507812 C 75.015625 69.902344 75.289062 68.601562 74.175781 67.625 C 72.792969 66.410156 70.496094 66.976562 70.496094 68.527344 C 70.496094 69.511719 70.804688 69.96875 71.757812 70.402344 C 72.761719 70.855469 72.738281 70.855469 73.5625 70.507812 Z M 85.234375 70.210938 L 86.726562 70.089844 L 87.195312 69.09375 C 87.457031 68.550781 88.324219 67.027344 89.125 65.714844 C 90.847656 62.898438 91.730469 60.910156 92.777344 57.492188 C 93.199219 56.109375 94.21875 53.234375 95.039062 51.101562 C 95.855469 48.96875 97.121094 45.421875 97.84375 43.21875 C 98.570312 41.015625 100.019531 37.191406 101.070312 34.71875 C 103.554688 28.867188 104.003906 26.875 103.066406 25.9375 C 102.464844 25.335938 101.515625 25.296875 100.628906 25.835938 C 99.816406 26.332031 99.769531 26.425781 98.449219 30.261719 C 97.113281 34.152344 95.132812 38.175781 93.066406 41.207031 C 90.890625 44.398438 89.578125 46.601562 88.085938 49.585938 C 87.371094 51.019531 86.476562 52.621094 86.105469 53.144531 C 85.363281 54.183594 85.359375 54.167969 86.347656 55.621094 C 86.992188 56.566406 86.929688 57.339844 86.203125 57.425781 C 85.535156 57.5 84.695312 56.390625 83.285156 53.582031 C 81.78125 50.574219 79.273438 47.527344 76.71875 45.59375 C 75.921875 44.992188 75.152344 44.332031 75.007812 44.125 C 74.488281 43.382812 69.582031 39.300781 68.804688 38.960938 C 68.367188 38.773438 66.976562 38.375 65.71875 38.082031 C 62.5625 37.339844 61.652344 36.976562 61.570312 36.429688 C 61.535156 36.167969 61.632812 35.9375 61.816406 35.867188 C 62.125 35.75 67.886719 36.832031 68.816406 37.1875 C 69.097656 37.292969 69.492188 37.378906 69.695312 37.378906 C 70.378906 37.378906 73.246094 32.417969 78.03125 22.957031 C 78.808594 21.421875 80.253906 19.011719 81.246094 17.597656 C 84.230469 13.355469 86.429688 8.566406 86.429688 6.304688 C 86.429688 5.460938 85.734375 4.570312 85.074219 4.570312 C 84.09375 4.570312 80.679688 6.9375 78.859375 8.878906 C 76.75 11.128906 70.289062 19.203125 69.183594 20.976562 C 68.570312 21.960938 67.417969 23.570312 66.625 24.558594 C 65.828125 25.546875 64.386719 27.5 63.417969 28.902344 C 61.3125 31.949219 58.566406 35.230469 56.066406 37.679688 C 54.734375 38.984375 54.140625 39.726562 53.875 40.417969 C 53.675781 40.9375 53.5625 41.414062 53.621094 41.472656 C 53.679688 41.53125 54.089844 41.484375 54.53125 41.367188 C 56.617188 40.804688 59.277344 42.304688 60.226562 44.570312 C 60.472656 45.15625 60.679688 45.320312 61.449219 45.535156 C 62.800781 45.914062 64.589844 47.308594 65.324219 48.558594 C 65.898438 49.535156 65.933594 49.707031 65.84375 51.058594 L 65.746094 52.503906 L 66.496094 52.976562 C 68.070312 53.96875 68.820312 55.390625 68.660156 57.078125 C 68.609375 57.605469 68.621094 58.109375 68.6875 58.195312 C 68.75 58.285156 69.25 58.582031 69.796875 58.855469 C 72.019531 59.964844 73.171875 61.78125 73.054688 63.988281 L 72.988281 65.296875 L 73.984375 65.601562 C 74.652344 65.808594 75.28125 66.210938 75.910156 66.832031 C 76.714844 67.628906 77.007812 67.785156 78.074219 67.972656 C 79.550781 68.230469 80.84375 68.949219 81.582031 69.914062 C 82.09375 70.585938 82.167969 70.617188 82.933594 70.480469 C 83.375 70.398438 84.414062 70.277344 85.234375 70.210938 Z M 73.417969 61.390625 C 72.800781 60.570312 70.457031 54.976562 69.921875 53.054688 C 68.789062 48.96875 68.289062 44.140625 69 44.140625 C 69.496094 44.140625 69.847656 44.960938 70.089844 46.6875 C 70.445312 49.195312 71.519531 52.859375 72.898438 56.269531 C 73.867188 58.660156 74.164062 59.632812 74.238281 60.6875 C 74.347656 62.226562 74.164062 62.382812 73.417969 61.390625 Z M 71.890625 28.492188 C 70.792969 28.066406 69.300781 25.894531 69.300781 24.722656 C 69.300781 23.871094 69.988281 24.171875 70.789062 25.378906 C 71.199219 25.996094 71.890625 26.847656 72.324219 27.273438 C 72.757812 27.699219 73.078125 28.15625 73.035156 28.289062 C 72.945312 28.5625 72.34375 28.667969 71.890625 28.492188 Z M 72.949219 25.746094 C 72 25.085938 71.394531 23.460938 72.09375 23.460938 C 72.472656 23.460938 74.28125 25.292969 74.28125 25.675781 C 74.28125 26.136719 73.558594 26.175781 72.949219 25.746094 Z M 77.445312 17.636719 C 76.054688 16.839844 75.675781 16.527344 75.675781 16.179688 C 75.675781 15.761719 76.195312 15.847656 77.539062 16.488281 C 78.734375 17.0625 79.390625 17.71875 79.15625 18.101562 C 78.964844 18.40625 78.628906 18.316406 77.445312 17.636719 Z M 125.839844 68.023438 C 126.164062 66.972656 126.929688 64.125 127.539062 61.699219 C 128.144531 59.269531 128.828125 56.785156 129.058594 56.179688 C 129.574219 54.796875 130.761719 53.285156 132.054688 52.355469 L 133.054688 51.636719 L 132.917969 50.625 C 132.699219 49.019531 131.167969 44.101562 129.9375 41.058594 C 129.316406 39.527344 128.445312 37.289062 128.003906 36.085938 C 126.445312 31.84375 124.863281 29.070312 123.628906 28.414062 C 123.101562 28.128906 122.34375 28.816406 122.074219 29.824219 C 121.691406 31.246094 121.5 34.140625 121.695312 35.527344 C 121.972656 37.476562 123.21875 49.207031 123.570312 53.1875 C 123.734375 55.046875 123.976562 57.507812 124.101562 58.65625 C 124.230469 59.804688 124.339844 62.847656 124.347656 65.417969 C 124.367188 71.480469 124.628906 71.933594 125.839844 68.023438 Z M 125.265625 59.160156 C 124.886719 58.707031 125.207031 58.457031 126.175781 58.457031 C 127.109375 58.457031 127.589844 58.914062 127.03125 59.269531 C 126.59375 59.546875 125.53125 59.480469 125.265625 59.160156 Z M 124.8125 56.851562 C 124.324219 56.566406 124.378906 56.097656 124.910156 55.988281 C 125.15625 55.9375 125.835938 55.789062 126.421875 55.660156 C 127.640625 55.394531 128.121094 55.605469 127.632812 56.191406 C 127.03125 56.914062 125.527344 57.265625 124.8125 56.851562 Z M 125.359375 46.007812 C 124.507812 45.800781 123.484375 45.269531 123.371094 44.976562 C 123.308594 44.804688 123.386719 44.535156 123.546875 44.375 C 123.785156 44.132812 123.996094 44.121094 124.699219 44.300781 C 125.171875 44.421875 126.1875 44.574219 126.953125 44.640625 C 128.667969 44.789062 129.042969 44.890625 129.042969 45.214844 C 129.042969 45.769531 126.5625 46.300781 125.359375 46.007812 Z M 122.8125 65.269531 C 122.714844 62.128906 121.707031 50.164062 121.378906 48.21875 C 121.324219 47.890625 121 45.160156 120.660156 42.152344 C 119.867188 35.109375 119.75 32.199219 120.179688 30.222656 C 120.714844 27.765625 120.734375 27.503906 120.417969 26.507812 C 120.25 25.980469 120.011719 24.921875 119.886719 24.15625 C 119.476562 21.660156 118.257812 20.3125 116.910156 20.871094 C 115.671875 21.382812 115.707031 21.167969 115.5625 28.75 C 115.488281 32.566406 115.433594 38.105469 115.441406 41.058594 C 115.472656 53.019531 115.472656 62.019531 115.4375 63.417969 L 115.402344 64.902344 L 116.515625 65.527344 C 117.128906 65.871094 118.113281 66.535156 118.707031 67.007812 C 119.863281 67.925781 121.933594 68.996094 122.550781 68.996094 C 122.914062 68.996094 122.925781 68.839844 122.8125 65.269531 Z M 117.691406 55.023438 C 116.703125 54.675781 116.792969 54.230469 117.890625 54.035156 C 118.980469 53.839844 120.082031 54.003906 120.082031 54.367188 C 120.082031 55.050781 118.785156 55.40625 117.691406 55.023438 Z M 117.867188 52.601562 C 116.730469 52.289062 116.496094 52.148438 116.496094 51.785156 C 116.496094 51.566406 116.773438 51.5 117.644531 51.507812 C 119.195312 51.523438 120.164062 51.871094 120.246094 52.441406 C 120.300781 52.839844 120.226562 52.886719 119.546875 52.871094 C 119.128906 52.863281 118.375 52.738281 117.867188 52.601562 Z M 117.027344 39.234375 C 116.953125 39.160156 117.082031 38.898438 117.3125 38.652344 L 117.734375 38.203125 L 116.917969 37.789062 C 115.082031 36.855469 116.632812 36.3125 118.636719 37.1875 C 119.59375 37.605469 119.683594 37.933594 119.074219 38.789062 C 118.742188 39.253906 118.511719 39.367188 117.910156 39.367188 C 117.5 39.367188 117.101562 39.308594 117.027344 39.234375 Z M 70.738281 64.871094 C 71.445312 64.207031 71.59375 63.453125 71.195312 62.503906 C 70.796875 61.546875 70.054688 60.757812 68.9375 60.101562 L 68.078125 59.59375 L 67.195312 60.035156 C 66.246094 60.507812 65.972656 61.046875 66.210938 61.980469 C 66.40625 62.761719 67.652344 64.378906 68.574219 65.046875 C 69.472656 65.695312 69.890625 65.660156 70.738281 64.871094 Z M 113.464844 64.332031 C 113.496094 64.304688 113.621094 62.035156 113.746094 59.289062 C 113.925781 55.355469 113.917969 52.992188 113.710938 48.136719 C 113.519531 43.660156 113.496094 40.496094 113.628906 36.546875 C 113.726562 33.558594 113.808594 29.011719 113.804688 26.445312 C 113.800781 21.203125 113.683594 20.621094 112.476562 19.886719 C 111.445312 19.257812 110.46875 19.355469 109.5625 20.175781 C 108.695312 20.957031 107.648438 23.046875 107.128906 25.039062 C 106.824219 26.214844 106.820312 26.414062 107.089844 27.136719 C 107.515625 28.261719 107.640625 32.359375 107.332031 35.054688 C 107.191406 36.304688 107.066406 40.074219 107.042969 43.644531 C 107.011719 49.132812 106.949219 50.320312 106.589844 52.292969 C 105.742188 56.949219 104.921875 62.6875 105.082031 62.847656 C 105.359375 63.125 107.96875 64.050781 109.167969 64.296875 C 110.089844 64.488281 113.265625 64.511719 113.464844 64.332031 Z M 109.167969 52.742188 C 108.007812 52.640625 108.074219 52.074219 109.277344 51.820312 C 110.152344 51.632812 110.722656 51.863281 110.722656 52.394531 C 110.722656 52.601562 110.179688 52.980469 110.058594 52.855469 C 110.042969 52.835938 109.640625 52.785156 109.167969 52.742188 Z M 109.378906 50.011719 C 108.296875 49.535156 108.648438 49.113281 110.128906 49.113281 C 110.910156 49.113281 111.601562 49.5625 111.464844 49.980469 C 111.351562 50.316406 110.113281 50.335938 109.378906 50.011719 Z M 109.960938 37.550781 C 109.144531 37.316406 109.230469 36.90625 110.117188 36.816406 C 111.121094 36.71875 111.71875 36.929688 111.71875 37.382812 C 111.71875 37.828125 111.121094 37.882812 109.960938 37.550781 Z M 110.722656 35.851562 C 108.878906 35.550781 108.578125 34.734375 110.269531 34.636719 C 111.449219 34.566406 112.117188 34.835938 112.117188 35.378906 C 112.117188 35.710938 111.699219 36.03125 111.355469 35.960938 C 111.28125 35.945312 110.996094 35.898438 110.722656 35.851562 Z M 135.761719 63.265625 C 136.160156 63.015625 135.171875 56.144531 134.539062 54.761719 C 133.921875 53.421875 133.496094 53.367188 132.375 54.484375 L 131.574219 55.285156 L 131.683594 57.617188 C 131.859375 61.328125 132.398438 62.445312 134.332031 63.132812 C 135.25 63.457031 135.429688 63.476562 135.761719 63.265625 Z M 66.59375 58.351562 C 66.761719 58.183594 66.953125 57.742188 67.023438 57.371094 C 67.277344 56.03125 66.671875 54.777344 65.476562 54.160156 C 64.898438 53.859375 64.824219 53.875 63.601562 54.492188 C 62.238281 55.183594 62.101562 55.453125 62.613281 56.429688 C 62.980469 57.128906 64.089844 58.183594 64.722656 58.433594 C 65.46875 58.730469 66.25 58.695312 66.59375 58.351562 Z M 63.289062 52.636719 C 65.214844 50.84375 64.292969 48.503906 61.070312 46.992188 L 60.304688 46.636719 L 59.429688 47.5625 C 58.652344 48.382812 58.550781 48.597656 58.550781 49.40625 C 58.550781 50.957031 59.59375 52.429688 61.144531 53.074219 C 61.820312 53.351562 62.71875 53.171875 63.289062 52.636719 Z M 85.675781 50.253906 C 86.179688 49.351562 86.992188 47.808594 87.484375 46.824219 C 87.972656 45.839844 89.425781 43.46875 90.710938 41.554688 C 93.566406 37.300781 95.425781 33.644531 96.867188 29.476562 C 97.464844 27.734375 98.285156 25.601562 98.679688 24.738281 C 99.632812 22.667969 101.59375 17.734375 102.113281 16.101562 C 102.925781 13.542969 102.835938 12.113281 101.792969 11.074219 C 101.058594 10.339844 99.472656 10.09375 98.707031 10.597656 C 98.109375 10.984375 95.703125 15.308594 94.160156 18.753906 C 92.253906 23.011719 91.648438 24.222656 90.125 26.839844 C 89.328125 28.207031 88.066406 30.488281 87.320312 31.910156 C 86.574219 33.332031 85.289062 35.570312 84.46875 36.882812 C 83.164062 38.960938 79.855469 45.4375 79.855469 45.910156 C 79.855469 46.003906 80.007812 46.203125 80.1875 46.351562 C 80.621094 46.707031 83.210938 49.960938 83.933594 51.050781 C 84.238281 51.515625 84.550781 51.894531 84.628906 51.894531 C 84.703125 51.894531 85.175781 51.15625 85.675781 50.253906 Z M 87.664062 38.742188 C 86.871094 38.238281 86.292969 37.238281 86.609375 36.921875 C 86.761719 36.765625 86.980469 36.824219 87.378906 37.117188 C 87.683594 37.339844 88.335938 37.730469 88.824219 37.976562 C 90.234375 38.691406 90.328125 39.171875 89.054688 39.167969 C 88.652344 39.167969 88.027344 38.972656 87.664062 38.742188 Z M 88.859375 35.746094 C 86.890625 34.339844 86.480469 33.792969 87.289062 33.636719 C 87.644531 33.566406 89.835938 34.796875 90.859375 35.636719 C 91.476562 36.148438 91.679688 37.027344 91.199219 37.128906 C 91.03125 37.164062 89.976562 36.542969 88.859375 35.746094 Z M 95.269531 25.484375 C 94.273438 24.761719 93.15625 23.492188 93.304688 23.25 C 93.371094 23.148438 93.644531 23.0625 93.914062 23.0625 C 94.496094 23.0625 96.785156 25.171875 96.785156 25.707031 C 96.785156 26.214844 96.148438 26.121094 95.269531 25.484375 Z M 57.644531 46.84375 C 58.886719 46.324219 59.027344 45.335938 58.027344 44.148438 C 57.332031 43.324219 56.554688 42.949219 55.550781 42.949219 C 53.335938 42.949219 52.105469 44.746094 53.5 45.953125 C 54.675781 46.976562 56.421875 47.351562 57.644531 46.84375 Z M 79.925781 41.386719 C 80.714844 39.785156 82.027344 37.445312 82.839844 36.1875 C 83.648438 34.929688 85.113281 32.382812 86.09375 30.519531 C 87.070312 28.660156 88.304688 26.417969 88.835938 25.53125 C 89.8125 23.902344 90.394531 22.71875 92.589844 17.875 C 93.265625 16.390625 94.269531 14.378906 94.820312 13.402344 C 97.132812 9.308594 97.976562 7.152344 97.976562 5.347656 C 97.976562 3.242188 96.097656 2.394531 93.859375 3.488281 C 91.667969 4.554688 88.019531 8.734375 86.835938 11.53125 C 85.988281 13.539062 84.722656 15.707031 82.667969 18.6875 C 81.722656 20.054688 80.320312 22.425781 79.546875 23.957031 C 77.253906 28.507812 74.84375 32.933594 73.117188 35.765625 C 72.222656 37.230469 71.492188 38.503906 71.492188 38.589844 C 71.492188 38.679688 72.570312 39.664062 73.882812 40.777344 C 75.195312 41.890625 76.273438 42.867188 76.273438 42.945312 C 76.273438 43.207031 78.109375 44.53125 78.304688 44.414062 C 78.410156 44.347656 79.136719 42.988281 79.925781 41.386719 Z M 81.296875 30.886719 C 80.9375 30.707031 80.421875 30.300781 80.148438 29.980469 C 79.632812 29.367188 79.492188 28.628906 79.894531 28.628906 C 80.261719 28.628906 82.597656 30.210938 82.730469 30.550781 C 83 31.257812 82.355469 31.40625 81.296875 30.886719 Z M 82.347656 27.816406 C 80.511719 26.398438 80.226562 25.992188 80.988281 25.882812 C 82.011719 25.738281 84.835938 27.65625 84.835938 28.5 C 84.835938 28.757812 84.441406 29.238281 84.246094 29.210938 C 84.1875 29.203125 83.332031 28.574219 82.347656 27.816406 Z M 89.117188 19.4375 C 87.710938 18.9375 86.03125 17.402344 86.03125 16.621094 C 86.03125 16.132812 86.492188 16.238281 87.347656 16.917969 C 87.773438 17.257812 88.480469 17.714844 88.917969 17.933594 C 89.929688 18.445312 91.007812 19.25 91.007812 19.492188 C 91.007812 19.742188 89.875 19.707031 89.117188 19.4375 Z M 57.859375 33.394531 C 58.59375 32.515625 59.152344 31.75 59.097656 31.699219 C 58.910156 31.511719 56.929688 33.46875 56.542969 34.226562 C 55.925781 35.4375 56.410156 35.128906 57.859375 33.394531 Z M 57.859375 33.394531 " fill-opacity="1" fill-rule="nonzero"/></g></svg>