<svg xmlns="http://www.w3.org/2000/svg" xmlns:xlink="http://www.w3.org/1999/xlink" width="200" zoomAndPan="magnify" viewBox="0 0 150 149.999998" height="200" preserveAspectRatio="xMidYMid meet" version="1.0"><defs><clipPath id="ee3d186462"><path d="M 25.617188 1.433594 L 124.617188 1.433594 L 124.617188 148.433594 L 25.617188 148.433594 Z M 25.617188 1.433594 " clip-rule="nonzero"/></clipPath></defs><g clip-path="url(#ee3d186462)"><path fill="#0a0a0a" d="M 124.5625 8.613281 C 124.375 6.855469 122.101562 7.671875 120.921875 7.492188 C 120.898438 5.769531 120.957031 4.042969 120.878906 2.324219 C 120.761719 1.195312 118.929688 1.15625 118.761719 2.28125 C 118.640625 4.019531 118.738281 5.769531 118.710938 7.515625 C 117.582031 7.511719 116.453125 7.515625 115.324219 7.515625 C 115.28125 5.773438 115.371094 4.019531 115.269531 2.277344 C 115.082031 1.160156 113.289062 1.21875 113.148438 2.332031 C 113.078125 4.054688 113.132812 5.789062 113.117188 7.515625 L 109.671875 7.515625 C 109.636719 5.765625 109.71875 4.011719 109.617188 2.261719 C 109.433594 1.175781 107.699219 1.167969 107.519531 2.261719 C 107.425781 4.011719 107.503906 5.769531 107.480469 7.519531 C 106.335938 7.519531 105.195312 7.53125 104.054688 7.519531 C 104.023438 5.777344 104.089844 4.03125 104.003906 2.289062 C 103.871094 1.167969 102.027344 1.160156 101.894531 2.28125 C 101.839844 4.027344 101.898438 5.773438 101.867188 7.519531 C 100.71875 7.527344 99.570312 7.527344 98.421875 7.523438 C 98.386719 5.777344 98.492188 4.019531 98.367188 2.277344 C 98.195312 1.195312 96.46875 1.179688 96.28125 2.265625 C 96.203125 4.015625 96.261719 5.769531 96.242188 7.519531 C 95.097656 7.515625 93.957031 7.519531 92.8125 7.519531 C 92.792969 5.792969 92.84375 4.0625 92.773438 2.332031 C 92.664062 1.277344 91 1.113281 90.710938 2.144531 C 90.59375 3.925781 90.695312 5.722656 90.65625 7.511719 C 89.507812 7.519531 88.363281 7.519531 87.214844 7.515625 C 87.195312 5.773438 87.28125 4.019531 87.171875 2.277344 C 87.003906 1.195312 85.261719 1.179688 85.089844 2.265625 C 85.007812 4.015625 85.074219 5.769531 85.050781 7.519531 C 83.90625 7.527344 82.765625 7.527344 81.621094 7.519531 C 81.617188 5.789062 81.691406 4.054688 81.59375 2.328125 C 81.53125 1.25 79.796875 1.121094 79.539062 2.160156 C 79.402344 3.9375 79.523438 5.734375 79.46875 7.515625 C 78.324219 7.519531 77.175781 7.519531 76.035156 7.53125 C 76.023438 5.773438 76.078125 4.011719 75.996094 2.261719 C 75.816406 1.167969 74.085938 1.171875 73.902344 2.261719 C 73.820312 4.011719 73.902344 5.773438 73.875 7.523438 L 70.449219 7.523438 C 70.445312 5.773438 70.484375 4.027344 70.429688 2.28125 C 70.289062 1.15625 68.445312 1.164062 68.3125 2.292969 C 68.25 4.03125 68.304688 5.777344 68.292969 7.519531 C 67.15625 7.527344 66.019531 7.519531 64.878906 7.53125 C 64.863281 5.777344 64.910156 4.019531 64.851562 2.269531 C 64.707031 1.152344 62.863281 1.171875 62.746094 2.277344 C 62.558594 4.015625 62.800781 5.769531 62.730469 7.511719 C 61.589844 7.527344 60.445312 7.519531 59.300781 7.523438 C 59.277344 5.773438 59.34375 4.019531 59.265625 2.273438 C 59.121094 1.160156 57.308594 1.148438 57.160156 2.269531 C 57.082031 4.015625 57.144531 5.769531 57.121094 7.519531 C 55.984375 7.523438 54.84375 7.527344 53.707031 7.515625 C 53.683594 5.773438 53.742188 4.027344 53.683594 2.289062 C 53.570312 1.15625 51.699219 1.152344 51.582031 2.285156 C 51.519531 4.023438 51.582031 5.773438 51.554688 7.515625 C 50.417969 7.523438 49.28125 7.519531 48.144531 7.519531 C 48.105469 5.765625 48.183594 4.011719 48.097656 2.261719 C 47.929688 1.171875 46.167969 1.167969 45.992188 2.261719 C 45.925781 4.007812 45.992188 5.761719 45.96875 7.515625 C 44.824219 7.523438 43.675781 7.523438 42.53125 7.523438 C 42.5 5.777344 42.578125 4.027344 42.507812 2.285156 C 42.375 1.160156 40.511719 1.152344 40.394531 2.289062 C 40.347656 4.027344 40.386719 5.769531 40.371094 7.511719 C 39.230469 7.535156 38.089844 7.527344 36.953125 7.527344 C 36.917969 5.777344 36.988281 4.015625 36.898438 2.265625 C 36.75 1.167969 34.960938 1.167969 34.808594 2.265625 C 34.730469 4.015625 34.800781 5.769531 34.777344 7.519531 C 33.632812 7.523438 32.484375 7.53125 31.339844 7.519531 C 31.316406 5.777344 31.371094 4.027344 31.304688 2.285156 C 31.1875 1.160156 29.300781 1.152344 29.195312 2.289062 C 29.148438 4.023438 29.191406 5.761719 29.175781 7.496094 C 28.042969 7.703125 25.984375 6.859375 25.644531 8.441406 L 25.644531 141.402344 C 25.957031 143.015625 28.035156 142.179688 29.183594 142.375 C 29.195312 144.097656 29.101562 145.828125 29.199219 147.550781 C 29.269531 148.691406 31.210938 148.699219 31.316406 147.5625 C 31.367188 145.835938 31.308594 144.105469 31.328125 142.378906 C 32.476562 142.378906 33.625 142.390625 34.777344 142.378906 C 34.800781 144.105469 34.679688 145.84375 34.816406 147.5625 C 34.910156 148.683594 36.804688 148.707031 36.917969 147.578125 C 37.207031 140.855469 35.738281 142.628906 40.382812 142.378906 C 40.398438 144.101562 40.3125 145.828125 40.410156 147.546875 C 40.472656 148.628906 42.253906 148.734375 42.492188 147.695312 C 42.601562 145.929688 42.503906 144.152344 42.527344 142.382812 C 43.675781 142.375 44.820312 142.382812 45.964844 142.386719 C 45.988281 144.113281 45.910156 145.847656 46.003906 147.574219 C 46.144531 148.6875 47.980469 148.695312 48.113281 147.574219 C 48.171875 145.84375 48.121094 144.109375 48.132812 142.375 C 49.273438 142.375 50.414062 142.375 51.554688 142.382812 C 51.578125 144.105469 51.519531 145.832031 51.585938 147.550781 C 51.6875 148.625 53.429688 148.71875 53.65625 147.671875 C 53.78125 145.910156 53.675781 144.132812 53.710938 142.367188 C 54.851562 142.378906 55.996094 142.367188 57.136719 142.382812 C 57.152344 144.113281 57.082031 145.839844 57.167969 147.570312 C 57.296875 148.691406 59.175781 148.683594 59.265625 147.558594 C 59.40625 145.835938 59.285156 144.097656 59.304688 142.371094 C 60.4375 142.375 61.570312 142.375 62.707031 142.378906 C 62.730469 144.148438 62.648438 145.925781 62.800781 147.6875 C 63.054688 148.699219 64.75 148.636719 64.855469 147.570312 C 64.921875 145.835938 64.859375 144.101562 64.878906 142.367188 C 66.023438 142.375 67.164062 142.371094 68.3125 142.375 C 68.347656 144.125 68.253906 145.882812 68.367188 147.625 C 68.554688 148.707031 70.363281 148.65625 70.4375 147.558594 C 70.546875 145.832031 70.4375 144.097656 70.457031 142.371094 C 71.601562 142.367188 72.75 142.371094 73.898438 142.371094 C 73.929688 144.097656 73.828125 145.832031 73.945312 147.554688 C 74.09375 148.648438 75.871094 148.679688 76.023438 147.570312 C 76.097656 145.839844 76.027344 144.097656 76.042969 142.363281 C 77.195312 142.367188 78.347656 142.367188 79.5 142.378906 C 79.523438 144.097656 79.40625 145.824219 79.527344 147.542969 C 79.601562 148.609375 81.34375 148.710938 81.589844 147.679688 C 81.71875 145.917969 81.59375 144.140625 81.632812 142.367188 C 82.78125 142.367188 83.921875 142.367188 85.070312 142.382812 C 85.089844 144.113281 85.015625 145.839844 85.09375 147.570312 C 85.234375 148.6875 87.066406 148.683594 87.1875 147.558594 C 87.273438 145.835938 87.203125 144.101562 87.222656 142.375 C 88.371094 142.371094 89.519531 142.371094 90.667969 142.382812 C 90.71875 144.105469 90.585938 145.835938 90.675781 147.558594 C 90.808594 148.664062 92.640625 148.699219 92.765625 147.570312 C 92.835938 145.835938 92.765625 144.101562 92.796875 142.371094 C 93.953125 142.382812 95.101562 142.371094 96.257812 142.382812 C 96.28125 144.113281 96.210938 145.839844 96.269531 147.570312 C 96.421875 148.683594 98.261719 148.6875 98.394531 147.558594 C 98.476562 145.832031 98.40625 144.097656 98.425781 142.371094 C 99.574219 142.378906 100.722656 142.367188 101.871094 142.386719 C 101.90625 144.15625 101.808594 145.933594 101.90625 147.699219 C 102.167969 148.757812 103.914062 148.636719 104.007812 147.546875 C 104.0625 145.824219 104.015625 144.09375 104.035156 142.367188 C 105.1875 142.382812 106.335938 142.375 107.488281 142.378906 C 107.5 144.109375 107.4375 145.84375 107.492188 147.574219 C 107.648438 148.707031 109.476562 148.707031 109.632812 147.574219 C 109.691406 145.84375 109.632812 144.105469 109.671875 142.367188 C 110.820312 142.375 111.96875 142.375 113.121094 142.375 C 113.125 144.097656 113.070312 145.824219 113.125 147.546875 C 113.226562 148.640625 114.953125 148.75 115.226562 147.695312 C 115.398438 145.933594 115.261719 144.148438 115.300781 142.375 C 116.453125 142.375 117.601562 142.367188 118.757812 142.375 C 118.71875 144.101562 118.613281 145.839844 118.753906 147.5625 C 118.839844 148.667969 120.628906 148.746094 120.859375 147.671875 C 120.949219 145.910156 120.859375 144.132812 120.886719 142.367188 C 122.046875 142.148438 124.03125 143.003906 124.542969 141.546875 C 124.636719 132.164062 124.566406 10.707031 124.566406 8.613281 Z M 122.421875 140.234375 L 27.796875 140.234375 L 27.796875 9.832031 C 27.945312 9.492188 27.800781 9.613281 122.421875 9.613281 Z M 117.359375 14.398438 C 115.257812 14.417969 34.488281 14.082031 32.429688 14.492188 C 31.421875 14.894531 31.847656 14.492188 31.847656 134.183594 C 31.582031 136.226562 27.894531 135.515625 117.191406 135.515625 C 118.992188 135.734375 118.351562 140.886719 118.351562 15.824219 C 118.4375 15.191406 118.09375 14.390625 117.359375 14.398438 Z M 116.183594 133.394531 L 34.023438 133.394531 L 34.023438 16.535156 C 61.414062 16.542969 88.800781 16.582031 116.1875 16.503906 L 116.1875 133.398438 Z M 115.714844 63.066406 C 115.796875 61.792969 114.511719 61.257812 113.785156 60.457031 C 115.976562 57.601562 116.046875 55.113281 113.117188 52.886719 C 113.371094 51.652344 116.113281 50.386719 114.714844 47.386719 C 115.582031 45.878906 115.226562 44.015625 114.257812 42.648438 C 116.066406 40.59375 115.511719 37.316406 113.269531 35.8125 C 114.75 34.691406 115.714844 32.804688 115.304688 30.929688 C 114.777344 28.542969 112.609375 27.121094 110.914062 25.570312 C 111.03125 25.429688 111.15625 25.292969 111.273438 25.15625 C 113.597656 26.144531 115.859375 24.28125 114.867188 21.691406 C 116.210938 19.605469 113.660156 16.925781 111.492188 18.125 C 109.46875 16.828125 106.8125 19.074219 107.796875 21.285156 C 106.78125 20.171875 105.921875 18.871094 104.628906 18.039062 C 102.429688 16.625 99.453125 17.347656 97.949219 19.394531 C 96.921875 18.15625 95.421875 17.140625 93.742188 17.285156 C 91.382812 17.324219 89.789062 19.234375 88.433594 20.914062 C 85.300781 15.902344 81.246094 16.445312 78.859375 19.335938 C 78.589844 17.65625 76.597656 16.742188 75.117188 17.550781 C 73.613281 16.753906 71.550781 17.675781 71.347656 19.414062 C 70 17.578125 67.441406 16.613281 65.273438 17.519531 C 63.644531 18.101562 62.695312 19.609375 61.726562 20.9375 C 60.519531 19.507812 59.300781 17.835938 57.351562 17.421875 C 55.402344 16.867188 53.367188 17.832031 52.207031 19.40625 C 49.78125 16.453125 46.09375 16.128906 42.53125 21.160156 C 43.359375 18.96875 40.75 16.855469 38.761719 18.054688 C 36.582031 16.925781 34.101562 19.511719 35.351562 21.625 C 34.070312 23.835938 36.765625 26.445312 38.953125 25.148438 C 39.054688 25.261719 39.160156 25.378906 39.265625 25.496094 C 37.691406 27 35.75 28.339844 35.011719 30.492188 C 34.332031 32.488281 35.332031 34.574219 36.925781 35.789062 C 34.730469 37.296875 34.105469 40.554688 35.910156 42.609375 C 34.945312 43.964844 34.652344 45.855469 35.53125 47.332031 C 34.292969 50.140625 36.558594 51.636719 37.085938 52.867188 C 34.242188 55.03125 34.171875 57.953125 36.257812 60.132812 C 36.023438 60.472656 35.824219 60.828125 35.65625 61.203125 C 33.609375 62.339844 34.722656 65.15625 36.515625 65.910156 C 34.300781 68.246094 34.027344 71.039062 36.953125 73.605469 C 34.425781 75.480469 33.910156 78.609375 36.714844 81.441406 C 34.902344 81.789062 34.082031 84.089844 35.152344 85.550781 C 34.957031 86.546875 35.308594 87.558594 36.019531 88.277344 C 34.082031 90.308594 34.621094 93.71875 36.949219 95.214844 C 34.683594 96.644531 34.097656 99.992188 35.945312 101.996094 C 34.675781 103.515625 34.691406 105.832031 35.960938 107.347656 C 34.164062 109.417969 34.578125 112.792969 36.925781 114.269531 C 35.492188 115.363281 34.519531 117.160156 34.890625 118.996094 C 35.390625 121.449219 37.601562 122.941406 39.324219 124.539062 L 38.960938 124.808594 C 35.988281 123.714844 34.414062 126.335938 35.347656 128.335938 C 34.160156 130.777344 36.417969 132.957031 38.769531 131.902344 C 40.804688 133.160156 43.386719 130.917969 42.472656 128.726562 C 43.546875 129.945312 44.476562 131.398438 45.988281 132.128906 C 48.117188 133.320312 50.859375 132.445312 52.199219 130.496094 C 53.433594 132.160156 55.644531 133.101562 57.695312 132.4375 C 59.457031 131.867188 60.621094 130.398438 61.75 129.046875 C 62.617188 130.292969 63.535156 131.605469 64.957031 132.285156 C 67.191406 133.355469 69.914062 132.449219 71.367188 130.5625 C 71.609375 132.195312 73.527344 133.199219 75.011719 132.441406 C 76.539062 133.191406 78.652344 132.289062 78.816406 130.511719 C 80.453125 132.671875 84.738281 134.9375 88.421875 129 C 89.664062 130.578125 91.105469 132.277344 93.214844 132.632812 C 95.066406 132.945312 96.90625 131.972656 97.957031 130.492188 C 99.257812 132.175781 101.554688 133.210938 103.636719 132.375 C 105.460938 131.761719 106.570312 130.109375 107.757812 128.714844 C 107.320312 130.070312 107.949219 131.773438 109.429688 132.121094 C 110.382812 132.535156 111.273438 131.570312 112.203125 132.078125 C 114.261719 132.617188 115.953125 130.109375 114.871094 128.34375 C 115.820312 126.625 114.351562 124.234375 112.347656 124.550781 C 111.929688 124.539062 111.015625 125.152344 111.003906 124.460938 C 112.691406 122.84375 114.828125 121.34375 115.308594 118.890625 C 115.664062 117.066406 114.636719 115.347656 113.253906 114.253906 C 115.554688 112.800781 116.058594 109.445312 114.261719 107.394531 C 115.476562 105.886719 115.589844 103.570312 114.292969 102.078125 C 116.09375 99.996094 115.515625 96.695312 113.238281 95.210938 C 115.59375 93.710938 116.078125 90.265625 114.195312 88.199219 C 114.960938 87.496094 115.195312 86.425781 115.015625 85.429688 C 116.125 83.996094 115.25 81.699219 113.445312 81.40625 C 115.925781 78.972656 116.234375 76.066406 113.242188 73.574219 C 116.152344 71.183594 115.960938 68.210938 113.613281 65.867188 C 114.589844 65.226562 115.816406 64.394531 115.71875 63.066406 Z M 113.25 57.449219 C 111.003906 56.308594 108.683594 53.660156 110.222656 51.074219 C 110.714844 51.078125 111.203125 51.035156 111.691406 50.964844 C 110.832031 51.867188 110.71875 53.417969 111.6875 54.285156 C 112.597656 55.097656 113.550781 56.113281 113.253906 57.449219 Z M 112.089844 79.820312 C 111.476562 80.265625 110.949219 80.941406 110.117188 80.929688 C 108.675781 81.078125 108.535156 82.816406 107.339844 83.375 C 107.316406 76.867188 107.328125 70.355469 107.332031 63.847656 C 108.949219 65.003906 110.621094 66.074219 112.164062 67.324219 C 106.335938 71.082031 105.78125 75.589844 112.089844 79.820312 Z M 110.3125 101.359375 C 110.4375 101.988281 110.214844 102.667969 109.476562 102.683594 C 108.945312 101.765625 109.214844 101.929688 108.175781 101.71875 C 107.726562 100.675781 109.414062 100.816406 109.449219 99.734375 C 109.851562 100.058594 110.3125 100.292969 110.808594 100.453125 C 110.828125 100.839844 110.613281 101.136719 110.3125 101.359375 Z M 111.65625 102.457031 C 112.796875 103.195312 113.664062 104.695312 112.699219 105.9375 C 111.804688 105.351562 110.933594 104.730469 110.089844 104.078125 C 110.867188 103.84375 111.460938 103.246094 111.65625 102.457031 M 108.191406 92.9375 C 107.328125 94.839844 107.625 97.125 108.894531 98.757812 C 108.386719 99.125 107.902344 99.519531 107.375 99.855469 C 107.28125 94.847656 107.34375 89.839844 107.3125 84.828125 C 107.5 84.96875 107.6875 85.109375 107.875 85.253906 C 107.363281 86.921875 109.003906 88.605469 110.6875 88.121094 C 111.121094 88.4375 111.574219 88.730469 112.042969 88.996094 C 110.535156 90.050781 108.980469 91.207031 108.191406 92.941406 Z M 107.332031 62.304688 C 107.339844 57.683594 107.3125 53.0625 107.332031 48.441406 C 107.660156 49.003906 108.132812 49.457031 108.679688 49.808594 C 106.292969 53.683594 108.234375 56.558594 112.007812 59.113281 C 110.453125 60.183594 108.886719 61.234375 107.332031 62.304688 M 112.246094 47.871094 C 111.582031 48.109375 111.273438 48.667969 111.140625 49.324219 C 110.570312 49.972656 109.890625 49.117188 109.945312 48.488281 C 107.566406 47.765625 110.59375 45.460938 112.683594 44.113281 C 113.480469 45.128906 112.972656 46.445312 112.015625 47.136719 C 112.09375 47.378906 112.171875 47.625 112.246094 47.871094 M 111.140625 35.269531 C 110.535156 37.390625 114 38.085938 113.238281 40.335938 C 108.824219 37.820312 108.300781 34.484375 113.285156 31.289062 C 113.746094 33.097656 111.871094 33.941406 111.140625 35.269531 Z M 109.738281 21.019531 C 109.46875 20.617188 109.234375 19.90625 109.820312 19.65625 C 110.582031 19.175781 111.15625 20.582031 111.875 19.988281 C 112.269531 19.734375 112.882812 19.464844 113.222656 19.945312 C 113.648438 20.535156 112.953125 21.113281 112.789062 21.667969 C 112.957031 22.21875 113.636719 22.882812 113.0625 23.402344 C 112.488281 23.921875 111.824219 23.265625 111.324219 22.953125 C 110.757812 23.28125 109.949219 23.964844 109.394531 23.253906 C 108.835938 22.417969 110.390625 21.808594 109.742188 21.015625 L 109.738281 21.015625 Z M 107.050781 23.511719 C 107.375 24.242188 107.871094 24.933594 108.664062 25.203125 C 108.570312 27.019531 108.691406 25.925781 112.242188 29.515625 C 106.71875 32.785156 105.65625 38 111.957031 42.007812 C 110.332031 43.363281 108.03125 44.285156 107.347656 46.445312 C 107.207031 25.371094 107.835938 24.613281 106.148438 24.808594 C 103.839844 24.804688 101.53125 24.816406 99.222656 24.804688 C 101.53125 24.210938 103.113281 22.261719 104.21875 20.273438 C 105.144531 21.367188 106.113281 22.425781 107.050781 23.507812 Z M 105.164062 122.972656 L 45.046875 122.972656 L 45.046875 26.960938 L 105.167969 26.960938 L 105.167969 122.972656 Z M 74.671875 24.8125 C 74.964844 24.476562 75.300781 24.496094 75.585938 24.832031 C 75.28125 24.84375 74.976562 24.835938 74.671875 24.8125 M 97.109375 21.414062 C 98.914062 22.851562 99.59375 19.0625 102.421875 19.320312 C 101.800781 20.328125 101.144531 21.359375 100.191406 22.09375 C 98.472656 23.421875 95.78125 23.375 93.558594 19.316406 C 95.152344 19.074219 96.121094 20.445312 97.109375 21.417969 Z M 91.707031 20.3125 C 92.8125 22.253906 94.375 24.0625 96.554688 24.808594 C 93.171875 24.832031 89.78125 24.867188 86.398438 24.792969 C 88.875 24.339844 90.144531 22.011719 91.710938 20.3125 Z M 86.988281 22.414062 C 84.773438 23.316406 83.660156 20.726562 82.824219 19.191406 C 84.855469 19.0625 85.980469 20.980469 86.988281 22.414062 M 78.710938 23.34375 C 78.988281 22.003906 80.171875 21.160156 80.964844 20.117188 C 82.035156 22.101562 83.316406 24.382812 85.765625 24.796875 C 82.957031 24.855469 80.152344 24.816406 77.34375 24.816406 C 77.855469 24.390625 78.480469 24.007812 78.710938 23.34375 Z M 73.511719 19.199219 C 74.246094 18.753906 74.820312 19.976562 75.492188 19.453125 C 75.910156 19.128906 76.574219 18.835938 76.972656 19.34375 C 77.410156 19.898438 76.726562 20.460938 76.566406 20.992188 C 76.785156 21.546875 77.488281 22.191406 76.917969 22.773438 C 76.300781 23.296875 75.671875 22.652344 75.113281 22.394531 C 74.558594 22.625 73.9375 23.308594 73.339844 22.777344 C 72.789062 22.21875 73.390625 21.503906 73.6875 20.984375 C 73.433594 20.457031 72.765625 19.652344 73.511719 19.199219 M 71.554688 23.367188 C 71.777344 23.984375 72.347656 24.367188 72.804688 24.808594 C 70.015625 24.8125 67.226562 24.871094 64.441406 24.792969 C 66.902344 24.394531 68.1875 22.089844 69.234375 20.085938 C 70.035156 21.152344 71.195312 22.035156 71.554688 23.367188 M 67.382812 19.1875 C 66.460938 20.65625 65.46875 23.320312 63.242188 22.449219 C 64.191406 20.953125 65.339844 19.078125 67.382812 19.1875 M 58.445312 20.269531 C 60.066406 21.996094 61.339844 24.453125 63.949219 24.785156 C 60.523438 24.878906 57.097656 24.824219 53.675781 24.796875 C 55.855469 24.066406 57.351562 22.199219 58.445312 20.269531 Z M 51.035156 21.128906 C 51.628906 21.875 52.78125 21.867188 53.371094 21.121094 C 54.152344 20.128906 55.214844 19.125 56.605469 19.320312 C 54.023438 23.894531 50.65625 24.28125 47.808594 19.28125 C 49.195312 19.128906 50.25 20.136719 51.035156 21.128906 M 38.945312 22.945312 C 38.429688 23.25 37.773438 23.9375 37.160156 23.441406 C 36.640625 22.863281 37.308594 22.207031 37.480469 21.628906 C 37.324219 21.0625 36.59375 20.441406 37.105469 19.855469 C 37.632812 19.355469 38.25 19.945312 38.773438 20.128906 C 39.34375 19.9375 39.949219 19.191406 40.558594 19.699219 C 41.167969 20.207031 40.496094 20.933594 40.316406 21.5 C 40.554688 22.074219 41.363281 22.730469 40.796875 23.351562 C 40.230469 23.972656 39.496094 23.246094 38.949219 22.949219 Z M 41.433594 25.253906 C 42.320312 24.96875 42.925781 24.238281 43.25 23.390625 C 44.136719 22.328125 45.078125 21.304688 45.980469 20.253906 C 47.097656 22.304688 48.773438 24.308594 51.171875 24.8125 C 44.15625 24.789062 42.75 24.449219 42.898438 25.957031 C 42.84375 32.960938 42.917969 39.960938 42.847656 46.960938 C 42.601562 44.382812 39.863281 43.507812 38.167969 42.015625 C 44.367188 38.203125 43.621094 32.75 37.980469 29.496094 C 41.644531 25.855469 41.675781 26.886719 41.433594 25.253906 Z M 40 101.347656 C 39.234375 100.253906 39.34375 100.46875 40.976562 99.871094 C 41.082031 101.035156 43.734375 101.238281 41.277344 102.007812 C 41.023438 102.308594 40.644531 102.902344 40.210938 102.519531 C 39.792969 102.257812 40.242188 101.695312 40 101.351562 Z M 40.113281 104.0625 C 39.265625 104.710938 38.355469 105.269531 37.484375 105.890625 C 36.429688 104.53125 37.640625 103.132812 38.636719 102.207031 C 38.660156 103.105469 39.269531 103.808594 40.113281 104.0625 M 41.238281 98.742188 C 43.464844 95.921875 43.101562 92.097656 38.09375 88.96875 C 38.546875 88.703125 38.980469 88.402344 39.390625 88.078125 C 41.148438 88.609375 42.894531 86.882812 42.296875 85.132812 C 43.050781 84.609375 42.996094 82.421875 42.847656 99.847656 C 42.28125 99.519531 41.785156 99.097656 41.238281 98.746094 Z M 38.011719 67.335938 C 39.578125 66.089844 41.273438 65.011719 42.875 63.808594 L 42.875 83.375 C 41.648438 82.804688 41.410156 81.058594 39.96875 80.90625 C 39.199219 80.824219 38.65625 80.246094 38.039062 79.855469 C 44.164062 76.1875 43.910156 70.730469 38.015625 67.335938 Z M 38.058594 49.835938 C 38.34375 49.292969 38.960938 49.804688 39.390625 49.859375 C 40.273438 48.882812 40.691406 50.027344 41.148438 50.734375 C 41.1875 51.421875 40.378906 51.414062 39.898438 51.5 C 39.625 51.792969 39.472656 52.542969 38.964844 52.277344 C 38.347656 52.105469 38.519531 51.414062 38.527344 50.933594 C 38.265625 50.636719 37.734375 50.269531 38.0625 49.832031 Z M 37.421875 44.164062 C 38.683594 45.167969 41.210938 45.878906 40.527344 47.953125 C 40.070312 47.972656 39.617188 48.027344 39.164062 48.113281 C 38 47.148438 36.390625 45.835938 37.421875 44.164062 M 42.433594 51.882812 C 43.003906 51.011719 42.847656 49.222656 42.878906 62.386719 C 41.292969 61.3125 39.785156 60.128906 38.136719 59.152344 C 40.648438 57.660156 43.066406 55.035156 42.433594 51.882812 M 42.207031 49.203125 C 43.011719 47.59375 42.855469 46.363281 42.847656 50.40625 C 42.636719 50.007812 42.425781 49.601562 42.207031 49.203125 M 36.964844 40.292969 C 36.238281 38.0625 39.664062 37.398438 39.085938 35.289062 C 38.332031 33.945312 36.46875 33.078125 36.929688 31.246094 C 41.550781 34.039062 41.765625 37.457031 36.964844 40.296875 Z M 38.953125 53.855469 C 39.519531 53.789062 40.058594 53.605469 40.535156 53.292969 C 40.101562 55.183594 38.535156 56.480469 36.964844 57.46875 C 36.53125 55.855469 38.046875 54.898438 38.953125 53.855469 M 36.210938 63.085938 C 36.503906 62.679688 36.953125 62.402344 37.199219 61.953125 C 37.46875 61.976562 37.738281 62.007812 38.007812 62.035156 C 38.835938 61.285156 38.605469 61.351562 39.347656 61.703125 C 39.246094 62.292969 39.335938 62.902344 39.996094 63.078125 C 39.480469 63.78125 38.988281 65.261719 38.023438 64.121094 C 37.710938 64.195312 37.402344 64.273438 37.09375 64.339844 C 36.839844 63.902344 36.253906 63.613281 36.210938 63.085938 Z M 38.9375 74.402344 C 40.253906 72.34375 36.558594 72.058594 36.941406 69.054688 C 41.863281 72.1875 41.421875 75.421875 36.941406 78.082031 C 36.503906 76.421875 38.105469 75.53125 38.9375 74.402344 Z M 36.636719 83.4375 C 37.164062 82.695312 38.121094 83.960938 38.605469 83.171875 C 38.910156 82.746094 39.523438 82.304688 39.976562 82.8125 C 40.640625 83.390625 39.445312 84.3125 40.171875 84.851562 C 40.5625 85.183594 40.878906 85.78125 40.46875 86.230469 C 39.984375 86.695312 39.335938 86.230469 38.800781 86.125 C 38.402344 86.570312 37.792969 87.359375 37.15625 86.816406 C 36.519531 86.269531 37.574219 85.347656 36.96875 84.785156 C 36.652344 84.417969 36.226562 83.90625 36.636719 83.4375 Z M 39.09375 95.675781 C 39.570312 93.578125 36.1875 92.925781 36.953125 90.671875 C 38.757812 91.769531 40.910156 93.539062 40.375 95.902344 C 39.976562 97.660156 38.347656 98.714844 36.957031 99.691406 C 36.433594 97.855469 38.441406 97.066406 39.09375 95.679688 Z M 36.933594 118.726562 C 36.234375 116.484375 39.738281 115.789062 39.027344 113.652344 C 38.242188 112.394531 36.421875 111.539062 36.976562 109.75 C 41.742188 112.800781 41.503906 115.964844 36.933594 118.726562 Z M 40.535156 130.261719 C 39.921875 130.742188 39.316406 130.054688 38.792969 129.78125 C 38.292969 130.023438 37.648438 130.640625 37.105469 130.160156 C 36.566406 129.578125 37.210938 128.859375 37.5 128.328125 C 37.226562 127.773438 36.535156 126.941406 37.25 126.445312 C 38.011719 125.914062 38.671875 127.367188 39.382812 126.714844 C 39.800781 126.335938 40.570312 126.109375 40.90625 126.707031 C 41.292969 127.386719 40.460938 127.867188 40.328125 128.484375 C 40.554688 129.019531 41.175781 129.773438 40.535156 130.265625 Z M 45.941406 129.675781 C 44.921875 128.316406 43.5625 127.1875 42.863281 125.621094 C 42.554688 125.164062 42.042969 124.914062 41.566406 124.679688 C 41.589844 122.933594 41.4375 124.03125 37.972656 120.496094 C 43.832031 117.039062 44.226562 111.765625 38.160156 108.0625 C 39.878906 106.503906 42.707031 105.613281 42.835938 102.910156 C 43.148438 123.402344 42.078125 125.347656 44.097656 125.125 C 46.363281 125.09375 48.628906 125.132812 50.894531 125.097656 C 48.625 125.765625 47.058594 127.699219 45.941406 129.675781 M 52.84375 128.382812 C 50.941406 127.316406 50.785156 130.691406 47.789062 130.625 C 50.625 125.605469 54.089844 126.070312 56.605469 130.632812 C 54.894531 130.828125 53.992188 129.289062 52.84375 128.382812 M 63.238281 127.542969 C 65.40625 126.59375 66.511719 129.238281 67.351562 130.71875 C 65.363281 130.800781 64.15625 129.035156 63.238281 127.542969 M 71.550781 126.488281 C 71.160156 127.839844 70.042969 128.785156 69.210938 129.875 C 64.308594 120.625 60.546875 127.503906 58.449219 129.703125 C 57.332031 127.664062 55.714844 125.65625 53.332031 125.109375 C 78.015625 125.152344 72.425781 124.355469 71.550781 126.488281 M 76.910156 130.628906 C 76.335938 131.167969 75.675781 130.523438 75.128906 130.292969 C 74.597656 130.539062 73.902344 131.195312 73.363281 130.613281 C 72.855469 130.066406 73.492188 129.425781 73.679688 128.878906 C 73.441406 128.316406 72.738281 127.496094 73.472656 127.019531 C 74.097656 126.621094 74.546875 127.449219 75.125 127.535156 C 75.675781 127.34375 76.253906 126.644531 76.855469 127.125 C 77.445312 127.65625 76.765625 128.324219 76.578125 128.878906 C 76.78125 129.433594 77.398438 130.042969 76.910156 130.628906 Z M 82.808594 130.730469 C 83.636719 129.214844 84.757812 126.6875 86.925781 127.480469 C 86.046875 129.011719 84.824219 130.863281 82.808594 130.730469 M 91.691406 129.699219 C 89.859375 127.554688 87.679688 123.8125 84.222656 125.722656 C 82.625 126.605469 81.792969 128.320312 80.925781 129.835938 C 80.152344 128.792969 79.019531 127.933594 78.734375 126.613281 C 78.058594 124.328125 71.347656 125.296875 96.78125 125.113281 C 94.449219 125.742188 92.824219 127.679688 91.691406 129.699219 M 99.726562 129.410156 C 97.015625 125.835938 96.582031 131.109375 93.507812 130.625 C 96.269531 125.859375 99.726562 125.816406 102.414062 130.625 C 101.363281 130.6875 100.355469 130.238281 99.726562 129.410156 M 111.648438 126.761719 C 112.054688 126.472656 112.660156 126.113281 113.09375 126.558594 C 113.632812 127.117188 112.898438 127.726562 112.761719 128.292969 C 112.949219 128.851562 113.613281 129.417969 113.214844 130.035156 C 112.695312 130.636719 111.992188 129.988281 111.449219 129.777344 C 110.878906 129.964844 110.25 130.75 109.652344 130.160156 C 109.097656 129.609375 109.824219 128.957031 109.855469 128.371094 C 109.574219 127.765625 108.742188 126.941406 109.621094 126.433594 C 110.359375 126.011719 110.96875 127.300781 111.644531 126.761719 Z M 108.691406 124.691406 C 107.871094 124.914062 107.339844 125.578125 107.070312 126.347656 C 106.136719 127.460938 105.1875 128.558594 104.242188 129.664062 C 103.117188 127.664062 101.535156 125.671875 99.179688 125.117188 C 106.050781 125.101562 107.394531 125.449219 107.308594 124.039062 C 107.351562 116.929688 107.296875 109.820312 107.351562 102.710938 C 107.253906 105.539062 110.25 106.503906 112.019531 108.058594 C 106.5625 111.339844 105.785156 116.675781 112.214844 120.484375 C 108.601562 124.199219 108.660156 122.953125 108.691406 124.691406 M 111.097656 113.90625 C 110.851562 115.890625 113.902344 116.585938 113.265625 118.746094 C 108.644531 115.914062 108.472656 112.730469 113.257812 109.730469 C 113.863281 111.65625 111.632812 112.386719 111.097656 113.90625 M 111.074219 94.953125 C 110.9375 96.925781 113.972656 97.597656 113.28125 99.785156 C 108.429688 96.550781 108.628906 93.613281 113.261719 90.691406 C 113.835938 92.644531 111.542969 93.375 111.074219 94.953125 M 113.574219 83.492188 C 114.019531 84.164062 113.132812 84.613281 112.953125 85.179688 C 113.074219 85.71875 113.539062 86.410156 112.941406 86.835938 C 112.300781 87.292969 111.839844 86.503906 111.410156 86.15625 C 110.839844 86.191406 110.132812 86.769531 109.695312 86.15625 C 109.359375 85.496094 109.957031 84.921875 110.386719 84.5 C 110.269531 83.925781 109.71875 83.152344 110.359375 82.703125 C 111.019531 82.242188 111.382812 83.183594 111.886719 83.4375 C 112.441406 83.429688 113.164062 82.855469 113.574219 83.492188 Z M 111.097656 73.199219 C 110.796875 75.230469 113.949219 75.890625 113.269531 78.085938 C 108.519531 75.300781 108.558594 71.902344 113.269531 69.058594 C 113.792969 70.957031 111.660156 71.710938 111.09375 73.199219 Z M 112.894531 64.328125 C 112.332031 64.007812 111.761719 64.21875 111.234375 64.472656 C 110.96875 63.871094 110.550781 63.359375 109.992188 63.015625 C 110.566406 62.867188 110.988281 62.503906 110.964844 61.875 C 111.097656 61.058594 111.9375 61.632812 112.230469 62.027344 C 112.5 62.003906 112.769531 61.984375 113.039062 61.964844 C 113.335938 62.453125 114.066406 62.722656 114.042969 63.355469 C 113.734375 63.757812 113.265625 63.996094 112.894531 64.332031 Z M 58.410156 39.527344 C 62.945312 36.535156 67.589844 33.722656 72.34375 31.09375 C 73.414062 30.761719 73.199219 29.023438 72.042969 29.050781 C 46.78125 29.695312 46.792969 28.175781 46.835938 30.601562 C 46.964844 37.992188 46.816406 45.382812 46.851562 52.773438 C 46.796875 53.847656 48.476562 54.238281 48.882812 53.234375 C 52.0625 45.316406 57.816406 39.683594 58.40625 39.527344 Z M 49.023438 47.925781 C 48.941406 42.351562 49.058594 36.777344 48.988281 31.199219 C 55.21875 31.214844 61.453125 31.136719 67.683594 31.238281 C 65.148438 32.753906 62.589844 34.238281 60.105469 35.84375 C 59.957031 33.523438 57.226562 31.898438 55.15625 33.097656 C 52.636719 31.054688 49.246094 33.769531 51.0625 36.984375 C 50.023438 38.832031 51.054688 41.476562 53.261719 41.761719 C 51.648438 43.675781 50.277344 45.765625 49.023438 47.925781 Z M 55.089844 39.9375 C 54.351562 39.535156 53.183594 40.089844 52.761719 39.148438 C 52.160156 38.152344 53.734375 37.351562 53.089844 36.394531 C 52.78125 35.863281 52.222656 35.03125 52.933594 34.566406 C 53.835938 34.210938 54.351562 35.488281 55.25 35.351562 C 55.714844 35.230469 56.070312 34.863281 56.539062 34.746094 C 57.289062 34.636719 58.082031 35.324219 57.96875 36.09375 C 57.855469 36.632812 57.539062 37.125 57.613281 37.691406 C 56.269531 37.789062 55.660156 38.890625 55.089844 39.9375 M 101.84375 29.023438 C 93.875 29.160156 85.898438 28.957031 77.933594 29.109375 C 77.101562 29.296875 76.882812 30.585938 77.679688 30.976562 C 79.238281 31.859375 92.472656 39.253906 93.503906 41.152344 C 99.828125 47.796875 100.648438 52.410156 101.546875 53.5625 C 102.167969 54.230469 103.445312 53.679688 103.367188 52.765625 C 103.371094 45.199219 103.417969 37.636719 103.367188 30.074219 C 103.40625 29.277344 102.527344 28.914062 101.84375 29.023438 Z M 94.238281 38.347656 C 93.804688 37.957031 93.195312 37.863281 92.671875 37.636719 C 92.660156 36.84375 91.9375 35.976562 92.566406 35.265625 C 93.078125 34.59375 94.007812 34.765625 94.578125 35.261719 C 95.636719 36.035156 96.402344 33.976562 97.457031 34.632812 C 98.347656 35.597656 96.371094 36.515625 97.164062 37.503906 C 97.539062 38.035156 97.769531 38.757812 97.335938 39.332031 C 96.816406 40.027344 95.851562 39.59375 95.164062 39.941406 C 94.703125 39.5 94.574219 38.863281 94.238281 38.351562 Z M 101.214844 47.992188 C 99.976562 45.804688 98.574219 43.707031 96.984375 41.761719 C 99.132812 41.503906 100.21875 38.882812 99.167969 37.082031 C 100.988281 34.296875 98.015625 30.988281 95.109375 33.128906 C 93.050781 31.972656 90.304688 33.5625 90.132812 35.867188 C 87.613281 34.25 85.03125 32.726562 82.445312 31.21875 C 88.707031 31.125 94.972656 31.21875 101.234375 31.183594 C 101.199219 36.789062 101.257812 42.390625 101.21875 47.992188 Z M 100.546875 64.113281 C 100.230469 62.707031 98.421875 63.425781 97.398438 63.253906 C 99.203125 52.011719 77.789062 47.667969 76.1875 35.417969 C 76.175781 34.125 74.097656 34.109375 74.058594 35.402344 C 72.625 47.847656 50.992188 51.777344 52.871094 63.253906 C 51.835938 63.4375 50.023438 62.699219 49.65625 64.082031 L 49.65625 120.265625 C 49.316406 122.160156 47.445312 121.585938 99.433594 121.585938 C 101.085938 121.675781 100.546875 124.445312 100.546875 64.117188 Z M 98.421875 119.453125 L 51.792969 119.453125 L 51.792969 65.394531 C 52.820312 65.3125 53.910156 65.585938 54.890625 65.226562 C 55.679688 64.75 55.265625 63.824219 55.078125 63.136719 C 52.824219 54.84375 70.6875 49.863281 75.132812 39.503906 C 79.355469 49.714844 98.023438 55.164062 95.078125 63.546875 C 94.757812 64.164062 94.832031 65.089844 95.585938 65.339844 C 96.527344 65.484375 97.46875 65.367188 98.421875 65.398438 Z M 98.421875 119.453125 " fill-opacity="1" fill-rule="nonzero"/></g></svg>