<svg xmlns="http://www.w3.org/2000/svg" xmlns:xlink="http://www.w3.org/1999/xlink" width="200" zoomAndPan="magnify" viewBox="0 0 150 149.999998" height="200" preserveAspectRatio="xMidYMid meet" version="1.0"><defs><clipPath id="5c272b9d61"><path d="M 5.878906 37.421875 L 143.878906 37.421875 L 143.878906 112.421875 L 5.878906 112.421875 Z M 5.878906 37.421875 " clip-rule="nonzero"/></clipPath></defs><g clip-path="url(#5c272b9d61)"><path fill="#000000" d="M 110.242188 75.390625 C 110.378906 75.996094 110.929688 76.050781 111.316406 76.246094 C 114.730469 77.925781 118.203125 79.574219 121.617188 81.28125 C 124.976562 82.960938 128.253906 84.753906 131.726562 86.128906 C 132.027344 86.238281 132.304688 86.402344 132.605469 86.515625 C 134.148438 87.175781 135.195312 88.25 135.882812 89.789062 C 138.695312 95.875 141.144531 102.070312 143.238281 108.429688 C 143.429688 109.035156 143.570312 109.667969 143.679688 110.273438 C 143.816406 110.964844 143.402344 111.542969 142.6875 111.652344 C 139.933594 112.039062 137.179688 112.421875 134.371094 112.394531 C 133.378906 112.394531 132.46875 112.175781 131.644531 111.679688 C 130.292969 110.824219 128.777344 110.332031 127.289062 109.753906 C 115.859375 105.292969 104.457031 100.832031 93.054688 96.34375 C 87.796875 94.277344 82.5625 92.1875 77.300781 90.09375 C 74.683594 89.074219 75.152344 89.019531 72.316406 90.121094 C 57.800781 95.847656 43.289062 101.574219 28.773438 107.300781 C 26.542969 108.183594 24.3125 109.035156 22.078125 109.863281 C 20.730469 110.359375 19.378906 110.824219 18.167969 111.597656 C 17.203125 112.203125 16.101562 112.421875 14.972656 112.394531 C 12.328125 112.367188 9.742188 112.011719 7.125 111.652344 C 6.902344 111.625 6.628906 111.542969 6.464844 111.402344 C 6.242188 111.210938 6.023438 110.910156 5.996094 110.632812 C 5.941406 110.246094 6.023438 109.835938 6.132812 109.476562 C 6.464844 108.320312 6.820312 107.191406 7.207031 106.0625 C 9.078125 100.640625 11.226562 95.324219 13.597656 90.121094 C 14.394531 88.359375 15.550781 87.09375 17.371094 86.347656 C 22.6875 84.203125 27.671875 81.339844 32.847656 78.859375 C 34.640625 78.007812 36.429688 77.125 38.21875 76.273438 C 38.632812 76.078125 39.046875 75.832031 39.429688 75.640625 C 39.457031 74.976562 38.964844 74.949219 38.632812 74.8125 C 35.601562 73.601562 32.574219 72.390625 29.542969 71.179688 C 24.804688 69.304688 20.070312 67.40625 15.359375 65.535156 C 14.394531 65.148438 13.460938 64.734375 12.714844 63.964844 C 12.136719 63.386719 11.945312 62.726562 12.21875 62.011719 C 12.46875 61.347656 12.714844 60.660156 13.15625 60.082031 C 15.496094 56.945312 17.261719 53.445312 19.296875 50.144531 C 21.199219 47.03125 23.042969 43.839844 24.917969 40.699219 C 25.246094 40.148438 25.605469 39.625 25.964844 39.101562 C 26.265625 38.6875 26.734375 38.578125 27.230469 38.746094 C 28.441406 39.128906 29.652344 39.542969 30.867188 39.902344 C 31.527344 40.121094 32.1875 40.066406 32.65625 39.515625 C 34.171875 37.78125 36.042969 37.421875 38.246094 37.617188 C 41.578125 37.917969 44.882812 38.386719 48.132812 39.238281 C 57.472656 41.691406 66.121094 45.628906 73.859375 51.4375 C 74.105469 51.628906 74.382812 51.796875 74.742188 52.015625 C 75.125 51.796875 75.566406 51.628906 75.925781 51.355469 C 83.691406 45.601562 92.339844 41.636719 101.675781 39.210938 C 105.449219 38.222656 109.304688 37.617188 113.246094 37.558594 C 114.097656 37.53125 114.8125 37.726562 115.476562 38.195312 C 115.804688 38.414062 116.164062 38.632812 116.410156 38.9375 C 117.375 40.09375 118.503906 40.175781 119.828125 39.597656 C 120.542969 39.296875 121.398438 39.238281 122.113281 38.910156 C 123.078125 38.46875 123.574219 38.773438 124.097656 39.570312 C 124.621094 40.367188 125.113281 41.195312 125.582031 42.019531 C 128.585938 47.113281 131.585938 52.179688 134.589844 57.246094 C 135.085938 58.074219 135.636719 58.84375 136.1875 59.613281 C 136.765625 60.386719 137.261719 61.210938 137.480469 62.148438 C 137.648438 62.808594 137.535156 63.386719 137.039062 63.910156 C 136.460938 64.488281 135.855469 64.957031 135.085938 65.257812 C 133.679688 65.808594 132.277344 66.414062 130.871094 66.964844 C 124.507812 69.5 118.148438 72.003906 111.785156 74.539062 C 111.261719 74.757812 110.628906 74.894531 110.242188 75.390625 Z M 122.195312 56.804688 C 122.085938 56.53125 122.058594 56.199219 121.921875 55.925781 C 120.019531 51.824219 118.476562 47.582031 117.074219 43.289062 C 116.933594 42.847656 116.796875 42.378906 116.578125 41.964844 C 116.4375 41.71875 116.21875 41.414062 115.832031 41.773438 C 116.082031 42.902344 116.355469 44.058594 116.605469 45.214844 C 117.238281 47.996094 117.898438 50.777344 118.558594 53.53125 C 118.699219 54.136719 118.808594 54.796875 119.332031 55.238281 C 120.183594 55.925781 121.039062 56.667969 122.195312 56.804688 Z M 27.53125 56.804688 C 28.550781 56.75 29.269531 56.0625 30.039062 55.539062 C 30.507812 55.210938 30.839844 54.769531 30.976562 54.21875 C 31.167969 53.445312 31.332031 52.675781 31.527344 51.90625 C 32.296875 48.601562 33.097656 45.269531 33.867188 41.964844 C 33.894531 41.855469 33.785156 41.609375 33.730469 41.609375 C 33.59375 41.609375 33.371094 41.664062 33.316406 41.773438 C 33.015625 42.40625 32.738281 43.066406 32.519531 43.726562 C 31.195312 47.804688 29.707031 51.796875 27.917969 55.703125 C 27.726562 56.0625 27.671875 56.449219 27.53125 56.804688 Z M 141.308594 108.898438 L 141.363281 108.953125 L 141.308594 108.898438 C 141.035156 108.238281 140.8125 107.550781 140.539062 106.917969 C 138.472656 102.347656 136.546875 97.71875 134.863281 92.984375 C 134.507812 92.019531 134.203125 91.03125 133.875 90.039062 C 133.679688 89.488281 133.324219 89.101562 132.746094 88.882812 C 131.476562 88.386719 130.238281 87.863281 129 87.339844 C 122.222656 84.367188 115.585938 81.0625 109.003906 77.675781 C 108.230469 77.289062 107.515625 76.738281 106.496094 76.628906 C 99.117188 79.574219 91.652344 82.550781 84.1875 85.550781 C 84.078125 85.578125 84.050781 85.769531 83.941406 85.992188 C 84.519531 86.402344 85.207031 86.597656 85.867188 86.871094 C 100.683594 92.929688 115.503906 98.960938 130.292969 105.015625 C 131.035156 105.320312 131.78125 105.566406 132.523438 105.84375 C 134.699219 106.613281 136.875 107.382812 139.050781 108.15625 C 139.824219 108.402344 140.566406 108.652344 141.308594 108.898438 Z M 8.390625 108.898438 C 8.777344 108.789062 9.164062 108.707031 9.546875 108.566406 C 12.328125 107.578125 15.085938 106.585938 17.867188 105.59375 C 18.472656 105.375 19.050781 105.152344 19.65625 104.90625 C 30.867188 100.335938 42.046875 95.738281 53.257812 91.140625 C 57.222656 89.515625 61.21875 87.917969 65.210938 86.320312 C 65.484375 86.210938 65.789062 86.101562 65.734375 85.6875 C 64 84.808594 44.96875 77.261719 42.820312 76.601562 C 42.15625 76.933594 41.46875 77.261719 40.753906 77.621094 C 33.097656 81.53125 25.441406 85.441406 17.453125 88.660156 C 16.570312 89.019531 16.019531 89.542969 15.71875 90.453125 C 13.84375 96.289062 11.421875 101.933594 8.914062 107.523438 C 8.722656 108.015625 8.585938 108.457031 8.390625 108.898438 L 8.335938 108.980469 Z M 75.703125 53.390625 C 75.757812 54.851562 75.84375 56.117188 75.871094 57.382812 C 75.953125 61.761719 76.0625 66.140625 75.785156 70.488281 C 75.757812 70.875 75.816406 71.289062 75.84375 71.675781 C 75.871094 72.003906 76.253906 72.167969 76.558594 71.949219 C 76.75 71.8125 76.945312 71.675781 77.136719 71.535156 C 83.058594 67.324219 89.367188 63.800781 96.167969 61.238281 C 100.546875 59.585938 105.007812 58.128906 109.445312 56.613281 C 111.703125 55.84375 113.90625 54.960938 116.300781 54.6875 C 116.6875 54.632812 117.074219 54.464844 117.238281 53.886719 C 116.933594 53.007812 116.605469 52.042969 116.273438 51.078125 C 115.171875 47.996094 114.261719 44.882812 113.710938 41.664062 C 113.601562 40.945312 113.519531 40.257812 113.382812 39.542969 C 113.300781 39.046875 112.859375 38.746094 112.308594 38.855469 C 111.59375 38.964844 110.902344 39.128906 110.214844 39.265625 C 103.164062 40.589844 96.304688 42.597656 89.75 45.515625 C 84.847656 47.664062 80.277344 50.363281 75.703125 53.390625 Z M 73.941406 53.335938 C 73.144531 52.8125 72.34375 52.289062 71.546875 51.796875 C 62.789062 46.125 53.285156 42.214844 43.066406 39.984375 C 41.195312 39.570312 39.347656 39.210938 37.476562 38.828125 C 36.84375 38.71875 36.429688 39.046875 36.320312 39.707031 C 36.292969 39.789062 36.292969 39.875 36.292969 39.957031 C 35.796875 44.085938 34.582031 48.023438 33.179688 51.933594 C 32.957031 52.539062 32.738281 53.117188 32.546875 53.722656 C 32.4375 54.023438 32.628906 54.355469 32.957031 54.464844 C 33.261719 54.574219 33.566406 54.714844 33.867188 54.742188 C 35.164062 54.851562 36.347656 55.265625 37.558594 55.648438 C 41.992188 57.164062 46.453125 58.625 50.863281 60.164062 C 58.792969 62.945312 66.121094 66.855469 72.949219 71.785156 C 73.089844 71.867188 73.226562 71.949219 73.363281 72.003906 C 73.527344 72.085938 73.886719 71.894531 73.886719 71.675781 C 73.914062 71.289062 73.96875 70.875 73.941406 70.488281 C 73.886719 68.753906 73.777344 66.992188 73.777344 65.257812 C 73.832031 61.402344 73.886719 57.523438 73.941406 53.335938 Z M 27.339844 40.808594 C 27.066406 41.222656 26.679688 41.71875 26.347656 42.269531 C 23.347656 47.140625 20.371094 52.042969 17.371094 56.917969 C 17.230469 57.109375 17.121094 57.328125 16.984375 57.523438 C 16.351562 58.597656 16.433594 58.871094 17.507812 59.3125 C 19.1875 60 20.921875 60.660156 22.601562 61.347656 C 39.128906 68.011719 55.652344 74.675781 72.179688 81.339844 C 74.988281 82.46875 74.714844 82.4375 77.382812 81.394531 C 85.070312 78.308594 92.726562 75.199219 100.410156 72.085938 C 110.738281 67.929688 121.066406 63.773438 131.421875 59.640625 C 131.726562 59.53125 132.027344 59.421875 132.304688 59.285156 C 133.15625 58.898438 133.296875 58.566406 132.882812 57.824219 C 132.800781 57.6875 132.714844 57.550781 132.632812 57.410156 C 129.4375 52.179688 126.246094 46.949219 123.050781 41.71875 C 122.882812 41.441406 122.71875 41.167969 122.5 40.945312 C 122.332031 40.808594 122.058594 40.644531 121.863281 40.671875 C 120.875 40.890625 119.882812 41.167969 118.890625 41.46875 C 118.558594 41.582031 118.421875 41.9375 118.503906 42.242188 C 118.585938 42.625 118.726562 43.011719 118.863281 43.371094 C 119.773438 45.820312 120.707031 48.296875 121.617188 50.75 C 122.445312 52.894531 123.296875 55.042969 124.097656 57.21875 C 124.289062 57.714844 124.5625 58.265625 124.207031 58.816406 C 123.902344 59.257812 123.351562 59.175781 122.9375 59.367188 C 121.425781 60.054688 119.9375 60.796875 118.394531 61.488281 C 106.578125 66.828125 94.652344 71.921875 82.644531 76.796875 C 81.183594 77.402344 79.671875 77.894531 78.183594 78.472656 C 76.007812 79.328125 73.859375 79.382812 71.683594 78.503906 C 70.5 78.035156 69.285156 77.648438 68.101562 77.179688 C 62.511719 74.894531 56.894531 72.609375 51.355469 70.242188 C 44.113281 67.132812 36.925781 63.910156 29.738281 60.714844 C 28.496094 60.164062 27.367188 59.421875 26.019531 59.117188 C 25.523438 59.007812 25.273438 58.484375 25.441406 57.988281 C 25.992188 56.421875 26.542969 54.824219 27.121094 53.28125 C 28.414062 49.867188 29.738281 46.453125 31.003906 43.011719 C 31.472656 41.746094 31.304688 41.386719 30.039062 41.167969 C 29.1875 41.058594 28.414062 40.480469 27.339844 40.808594 Z M 134.671875 60.769531 C 134.09375 60.992188 133.707031 61.101562 133.351562 61.265625 C 126.050781 64.210938 118.753906 67.160156 111.453125 70.132812 C 99.722656 74.894531 87.90625 79.382812 76.28125 84.367188 C 75.265625 84.808594 74.300781 84.78125 73.28125 84.285156 C 72.289062 83.816406 71.269531 83.347656 70.222656 82.933594 C 52.292969 75.722656 34.363281 68.507812 16.40625 61.292969 C 15.964844 61.128906 15.523438 60.964844 15 60.796875 C 14.753906 61.210938 14.535156 61.515625 14.367188 61.871094 C 14.203125 62.203125 14.339844 62.558594 14.644531 62.699219 C 15.605469 63.082031 16.542969 63.46875 17.507812 63.855469 C 36.125 71.316406 54.71875 78.777344 73.335938 86.210938 C 73.859375 86.402344 74.382812 86.570312 74.824219 86.734375 C 77.355469 85.742188 79.808594 84.808594 82.230469 83.816406 C 99.582031 76.878906 116.933594 69.910156 134.285156 62.972656 C 134.507812 62.890625 134.726562 62.808594 134.949219 62.699219 C 135.304688 62.53125 135.414062 62.121094 135.195312 61.679688 C 135.140625 61.429688 134.921875 61.183594 134.671875 60.769531 Z M 121.398438 58.484375 C 120.460938 57.550781 119.414062 56.777344 118.203125 56.089844 C 116.824219 56.53125 115.476562 56.972656 114.125 57.382812 C 107.433594 59.394531 100.769531 61.542969 94.242188 64.046875 C 91.265625 65.175781 88.375 66.496094 85.566406 68.011719 C 83.03125 69.359375 80.660156 70.957031 78.515625 72.886719 C 77.796875 73.519531 77.136719 74.207031 76.503906 74.921875 C 76.253906 75.199219 76.0625 75.582031 75.925781 75.941406 C 75.785156 76.328125 75.785156 76.710938 76.253906 77.015625 C 91.046875 70.460938 106.167969 64.625 121.285156 58.789062 C 121.285156 58.789062 121.3125 58.679688 121.398438 58.484375 Z M 28.332031 58.457031 C 28.550781 59.089844 29.074219 59.117188 29.488281 59.285156 C 36.015625 61.789062 42.570312 64.265625 49.070312 66.855469 C 57.058594 70.050781 65.046875 73.1875 72.839844 76.796875 C 72.976562 76.851562 73.144531 76.933594 73.28125 76.960938 C 73.417969 76.988281 73.640625 76.988281 73.695312 76.90625 C 73.804688 76.710938 73.941406 76.4375 73.886719 76.273438 C 73.75 75.832031 73.582031 75.335938 73.308594 75.003906 C 72.621094 74.234375 71.902344 73.492188 71.132812 72.804688 C 68.296875 70.324219 65.074219 68.425781 61.714844 66.773438 C 57.636719 64.789062 53.394531 63.195312 49.097656 61.761719 C 43.535156 59.890625 37.917969 58.15625 32.296875 56.367188 C 31.996094 56.28125 31.691406 56.226562 31.417969 56.199219 C 30.230469 56.859375 29.242188 57.632812 28.332031 58.457031 Z M 11.3125 110.246094 C 12.964844 110.359375 14.367188 110.441406 15.800781 110.550781 C 17.230469 110.027344 18.636719 109.53125 20.070312 109.007812 C 20.371094 108.898438 20.675781 108.789062 20.949219 108.652344 C 29.40625 105.210938 37.863281 101.710938 46.34375 98.296875 C 54.140625 95.132812 61.960938 91.992188 69.78125 88.855469 C 70.277344 88.660156 70.855469 88.578125 71.160156 88 C 70.691406 87.394531 69.976562 87.257812 69.371094 87.148438 C 50.144531 94.664062 30.976562 102.179688 11.835938 109.722656 C 11.695312 109.78125 11.613281 109.917969 11.3125 110.246094 Z M 138.253906 110.21875 C 138.171875 109.695312 137.730469 109.640625 137.371094 109.503906 C 134.175781 108.265625 130.980469 107.082031 127.8125 105.816406 C 112.75 99.839844 97.65625 93.867188 82.589844 87.890625 C 82.066406 87.699219 81.570312 87.449219 81.046875 87.285156 C 80.109375 86.953125 79.558594 87.148438 78.515625 88.140625 C 78.953125 88.359375 79.367188 88.578125 79.808594 88.773438 C 83.195312 90.148438 86.582031 91.496094 89.972656 92.875 C 103 98.160156 116.027344 103.472656 129.082031 108.761719 C 130.484375 109.339844 131.917969 109.835938 133.324219 110.332031 C 133.679688 110.46875 134.09375 110.578125 134.480469 110.550781 C 135.746094 110.46875 136.984375 110.332031 138.253906 110.21875 Z M 138.253906 110.21875 " fill-opacity="1" fill-rule="nonzero"/></g><path fill="#000000" d="M 79.972656 54.769531 C 80.359375 54.023438 81.019531 53.558594 81.652344 53.117188 C 83.03125 52.179688 84.40625 51.21875 85.867188 50.445312 C 87.90625 49.371094 89.972656 48.351562 92.121094 47.5 C 96.664062 45.628906 101.320312 43.976562 106.082031 42.738281 C 106.9375 42.515625 107.792969 42.351562 108.671875 42.460938 C 108.894531 42.488281 109.195312 42.542969 109.167969 42.847656 C 109.140625 43.066406 109.058594 43.316406 108.921875 43.453125 C 108.285156 44.085938 107.433594 44.359375 106.605469 44.636719 C 102.859375 45.957031 99.144531 47.335938 95.398438 48.628906 C 90.960938 50.144531 86.667969 52.015625 82.480469 54.136719 C 81.765625 54.492188 81.019531 54.769531 80.304688 55.070312 C 80.167969 54.960938 80.054688 54.878906 79.972656 54.769531 Z M 79.972656 54.769531 " fill-opacity="1" fill-rule="nonzero"/><path fill="#000000" d="M 81.019531 58.734375 C 81.210938 58.511719 81.40625 58.238281 81.625 58.074219 C 82.753906 57.300781 83.828125 56.503906 85.011719 55.871094 C 89.226562 53.585938 93.605469 51.710938 98.179688 50.335938 C 98.785156 50.144531 99.390625 49.949219 100.050781 50.089844 C 100.1875 50.117188 100.4375 50.226562 100.4375 50.308594 C 100.4375 50.527344 100.4375 50.859375 100.300781 50.941406 C 99.914062 51.21875 99.5 51.4375 99.058594 51.628906 C 96.140625 52.867188 93.195312 54.109375 90.273438 55.347656 C 87.628906 56.476562 85.011719 57.578125 82.371094 58.707031 C 82.011719 58.84375 81.625 58.953125 81.269531 59.0625 C 81.183594 58.953125 81.101562 58.84375 81.019531 58.734375 Z M 81.019531 58.734375 " fill-opacity="1" fill-rule="nonzero"/><path fill="#000000" d="M 82.066406 64.460938 C 81.957031 64.238281 81.820312 64.074219 81.875 63.992188 C 82.09375 63.660156 82.285156 63.332031 82.589844 63.082031 C 84.324219 61.652344 86.308594 60.605469 88.347656 59.722656 C 90.082031 58.953125 91.871094 58.265625 93.773438 57.933594 C 94.074219 57.878906 94.40625 57.90625 94.707031 57.960938 C 94.847656 57.988281 94.984375 58.15625 95.039062 58.265625 C 95.09375 58.402344 95.09375 58.597656 95.011719 58.707031 C 94.652344 59.257812 94.074219 59.53125 93.496094 59.808594 C 91.679688 60.632812 89.859375 61.429688 88.042969 62.230469 C 86.363281 62.945312 84.65625 63.632812 82.976562 64.296875 C 82.644531 64.40625 82.34375 64.40625 82.066406 64.460938 Z M 82.066406 64.460938 " fill-opacity="1" fill-rule="nonzero"/><path fill="#000000" d="M 80.277344 55.070312 C 80.167969 55.097656 80.027344 55.097656 79.917969 55.125 C 79.945312 55.015625 79.945312 54.878906 79.972656 54.769531 C 80.054688 54.878906 80.167969 54.960938 80.277344 55.070312 Z M 80.277344 55.070312 " fill-opacity="1" fill-rule="nonzero"/><path fill="#000000" d="M 69.453125 55.070312 C 68.875 54.824219 68.269531 54.660156 67.691406 54.355469 C 62.816406 51.796875 57.746094 49.757812 52.570312 47.96875 C 49.347656 46.867188 46.125 45.683594 42.929688 44.527344 C 42.1875 44.25 41.414062 43.976562 40.863281 43.425781 C 40.726562 43.289062 40.617188 43.011719 40.617188 42.820312 C 40.589844 42.515625 40.890625 42.433594 41.113281 42.433594 C 41.828125 42.460938 42.542969 42.460938 43.230469 42.597656 C 44.085938 42.765625 44.914062 43.011719 45.765625 43.289062 C 50.695312 44.800781 55.597656 46.453125 60.28125 48.601562 C 62.675781 49.675781 65.019531 50.886719 67.140625 52.402344 C 68.101562 53.089844 69.121094 53.722656 69.78125 54.742188 C 69.671875 54.851562 69.5625 54.960938 69.453125 55.070312 Z M 69.453125 55.070312 " fill-opacity="1" fill-rule="nonzero"/><path fill="#000000" d="M 68.542969 58.925781 C 67.9375 59.0625 67.496094 58.707031 67 58.511719 C 64 57.246094 60.996094 55.953125 57.996094 54.6875 C 55.570312 53.667969 53.148438 52.675781 50.722656 51.65625 C 50.28125 51.464844 49.84375 51.273438 49.457031 50.996094 C 49.320312 50.886719 49.207031 50.554688 49.265625 50.390625 C 49.320312 50.226562 49.621094 50.03125 49.816406 50.058594 C 50.449219 50.117188 51.082031 50.226562 51.6875 50.390625 C 55.128906 51.382812 58.433594 52.757812 61.683594 54.300781 C 63.695312 55.265625 65.679688 56.28125 67.496094 57.605469 C 67.882812 57.878906 68.242188 58.210938 68.570312 58.539062 C 68.597656 58.597656 68.542969 58.789062 68.542969 58.925781 Z M 68.542969 58.925781 " fill-opacity="1" fill-rule="nonzero"/><path fill="#000000" d="M 55.707031 57.878906 C 56.121094 57.960938 56.671875 58.046875 57.222656 58.210938 C 60.445312 59.175781 63.503906 60.496094 66.257812 62.421875 C 66.835938 62.835938 67.332031 63.359375 67.828125 63.855469 C 67.910156 63.9375 67.910156 64.183594 67.828125 64.265625 C 67.746094 64.378906 67.550781 64.460938 67.414062 64.433594 C 67.027344 64.351562 66.644531 64.265625 66.285156 64.101562 C 63.144531 62.78125 59.976562 61.429688 56.839844 60.082031 C 56.175781 59.808594 55.597656 59.394531 54.992188 59.007812 C 54.691406 58.816406 54.550781 58.375 54.746094 58.210938 C 54.910156 58.074219 55.128906 57.988281 55.351562 57.878906 C 55.40625 57.851562 55.488281 57.878906 55.707031 57.878906 Z M 55.707031 57.878906 " fill-opacity="1" fill-rule="nonzero"/><path fill="#000000" d="M 69.753906 54.769531 C 69.867188 55.210938 69.867188 55.210938 69.453125 55.097656 C 69.5625 54.960938 69.671875 54.851562 69.753906 54.769531 Z M 69.753906 54.769531 " fill-opacity="1" fill-rule="nonzero"/></svg>