<svg xmlns="http://www.w3.org/2000/svg" xmlns:xlink="http://www.w3.org/1999/xlink" width="200" zoomAndPan="magnify" viewBox="0 0 150 149.999998" height="200" preserveAspectRatio="xMidYMid meet" version="1.0"><defs><clipPath id="b825542e01"><path d="M 4.152344 11.363281 L 66 11.363281 L 66 73 L 4.152344 73 Z M 4.152344 11.363281 " clip-rule="nonzero"/></clipPath><clipPath id="78c099b438"><path d="M 64 18 L 145.902344 18 L 145.902344 100 L 64 100 Z M 64 18 " clip-rule="nonzero"/></clipPath><clipPath id="12729f327a"><path d="M 32 68 L 103 68 L 103 138.863281 L 32 138.863281 Z M 32 68 " clip-rule="nonzero"/></clipPath></defs><g clip-path="url(#b825542e01)"><path fill="#608bc1" d="M 20.386719 16.511719 C 20.019531 15.402344 20.710938 14.121094 21.800781 13.746094 C 23.304688 13.160156 24.847656 12.671875 26.359375 12.113281 C 27.089844 11.859375 27.859375 11.5 28.648438 11.691406 C 29.449219 11.851562 30.101562 12.476562 30.34375 13.253906 C 30.871094 14.679688 31.355469 16.128906 31.871094 17.558594 C 34.832031 17.164062 37.863281 17.367188 40.773438 18.023438 C 41.476562 16.582031 42.125 15.101562 42.859375 13.675781 C 43.429688 12.601562 44.871094 12.21875 45.925781 12.785156 C 47.714844 13.644531 49.519531 14.476562 51.289062 15.371094 C 52.351562 15.902344 52.773438 17.335938 52.226562 18.382812 C 51.558594 19.765625 50.914062 21.164062 50.234375 22.546875 C 52.582031 24.402344 54.617188 26.648438 56.203125 29.191406 C 57.648438 28.6875 59.082031 28.152344 60.53125 27.664062 C 61.628906 27.214844 63.015625 27.785156 63.441406 28.902344 C 64.160156 30.816406 64.828125 32.753906 65.492188 34.6875 C 65.914062 35.824219 65.214844 37.195312 64.0625 37.550781 C 62.613281 38.082031 61.152344 38.574219 59.699219 39.101562 C 60.066406 42.074219 59.894531 45.101562 59.226562 48.019531 C 60.65625 48.722656 62.109375 49.355469 63.523438 50.085938 C 64.578125 50.605469 65.023438 52 64.519531 53.050781 C 63.667969 54.851562 62.8125 56.652344 61.941406 58.445312 C 61.460938 59.511719 60.085938 60.042969 59.023438 59.546875 C 57.574219 58.894531 56.152344 58.179688 54.710938 57.496094 C 52.855469 59.839844 50.621094 61.890625 48.082031 63.472656 C 48.585938 64.964844 49.15625 66.4375 49.640625 67.9375 C 50.046875 69.070312 49.363281 70.445312 48.199219 70.789062 C 46.347656 71.453125 44.488281 72.109375 42.628906 72.761719 C 41.535156 73.1875 40.179688 72.566406 39.785156 71.464844 C 39.226562 69.988281 38.71875 68.492188 38.207031 67 C 35.230469 67.304688 32.207031 67.183594 29.285156 66.5 C 28.570312 67.9375 27.925781 69.414062 27.191406 70.839844 C 26.65625 71.898438 25.226562 72.324219 24.1875 71.765625 C 22.394531 70.914062 20.59375 70.066406 18.8125 69.1875 C 17.796875 68.691406 17.292969 67.375 17.75 66.332031 C 18.394531 64.859375 19.136719 63.429688 19.816406 61.972656 C 17.460938 60.128906 15.425781 57.878906 13.847656 55.332031 C 12.371094 55.847656 10.902344 56.394531 9.417969 56.890625 C 8.324219 57.300781 6.976562 56.691406 6.585938 55.582031 C 5.898438 53.726562 5.261719 51.851562 4.601562 49.988281 C 4.121094 48.839844 4.75 47.378906 5.941406 46.996094 C 7.40625 46.441406 8.890625 45.957031 10.359375 45.425781 C 9.984375 42.457031 10.144531 39.425781 10.832031 36.519531 C 9.410156 35.835938 7.992188 35.160156 6.578125 34.472656 C 5.496094 33.960938 5.003906 32.535156 5.542969 31.464844 C 6.386719 29.652344 7.25 27.855469 8.121094 26.0625 C 8.632812 24.980469 10.035156 24.488281 11.113281 25.011719 C 12.539062 25.65625 13.933594 26.378906 15.355469 27.027344 C 17.1875 24.667969 19.429688 22.625 21.976562 21.066406 C 21.460938 19.546875 20.878906 18.046875 20.390625 16.515625 Z M 28.707031 29.144531 C 24.546875 31.105469 21.488281 35.171875 20.703125 39.703125 C 20.058594 43.253906 20.8125 47.023438 22.742188 50.066406 C 24.742188 53.265625 28.054688 55.589844 31.71875 56.445312 C 35.46875 57.324219 39.589844 56.671875 42.816406 54.542969 C 46.03125 52.5625 48.339844 49.21875 49.1875 45.546875 C 50.023438 42.011719 49.46875 38.15625 47.636719 35.015625 C 45.660156 31.515625 42.152344 28.921875 38.226562 28.0625 C 35.050781 27.304688 31.644531 27.75 28.707031 29.144531 Z M 28.707031 29.144531 " fill-opacity="1" fill-rule="nonzero"/></g><g clip-path="url(#78c099b438)"><path fill="#214184" d="M 85.503906 24.828125 C 85.019531 23.351562 85.9375 21.65625 87.386719 21.160156 C 89.378906 20.382812 91.421875 19.734375 93.429688 18.992188 C 94.394531 18.65625 95.417969 18.179688 96.464844 18.433594 C 97.527344 18.644531 98.390625 19.472656 98.714844 20.503906 C 99.410156 22.398438 100.054688 24.316406 100.734375 26.21875 C 104.667969 25.695312 108.683594 25.960938 112.546875 26.832031 C 113.480469 24.917969 114.335938 22.957031 115.3125 21.0625 C 116.066406 19.636719 117.980469 19.132812 119.378906 19.882812 C 121.75 21.023438 124.140625 22.125 126.492188 23.3125 C 127.898438 24.019531 128.457031 25.917969 127.734375 27.308594 C 126.847656 29.144531 125.996094 31 125.09375 32.832031 C 128.207031 35.292969 130.90625 38.269531 133.007812 41.644531 C 134.925781 40.976562 136.824219 40.265625 138.75 39.621094 C 140.203125 39.023438 142.042969 39.773438 142.605469 41.257812 C 143.5625 43.796875 144.449219 46.367188 145.328125 48.929688 C 145.886719 50.441406 144.960938 52.253906 143.429688 52.726562 C 141.511719 53.433594 139.570312 54.089844 137.644531 54.785156 C 138.132812 58.726562 137.902344 62.746094 137.015625 66.613281 C 138.914062 67.542969 140.839844 68.386719 142.71875 69.351562 C 144.117188 70.042969 144.707031 71.890625 144.035156 73.285156 C 142.90625 75.675781 141.773438 78.0625 140.617188 80.441406 C 139.980469 81.855469 138.160156 82.554688 136.75 81.902344 C 134.824219 81.035156 132.941406 80.085938 131.03125 79.183594 C 128.570312 82.289062 125.601562 85.007812 122.238281 87.109375 C 122.910156 89.085938 123.664062 91.039062 124.308594 93.027344 C 124.84375 94.53125 123.9375 96.355469 122.394531 96.8125 C 119.9375 97.691406 117.472656 98.5625 115.003906 99.425781 C 113.554688 99.992188 111.757812 99.167969 111.234375 97.707031 C 110.492188 95.75 109.820312 93.765625 109.140625 91.789062 C 105.195312 92.191406 101.183594 92.03125 97.308594 91.121094 C 96.363281 93.027344 95.503906 94.984375 94.53125 96.878906 C 93.820312 98.28125 91.925781 98.84375 90.546875 98.105469 C 88.167969 96.972656 85.785156 95.851562 83.421875 94.6875 C 82.074219 94.03125 81.402344 92.28125 82.011719 90.898438 C 82.863281 88.945312 83.851562 87.050781 84.753906 85.117188 C 81.625 82.671875 78.929688 79.6875 76.835938 76.3125 C 74.875 76.996094 72.925781 77.71875 70.960938 78.382812 C 69.507812 78.921875 67.722656 78.113281 67.207031 76.644531 C 66.292969 74.183594 65.449219 71.695312 64.574219 69.226562 C 63.933594 67.703125 64.769531 65.765625 66.351562 65.257812 C 68.289062 64.519531 70.257812 63.878906 72.207031 63.175781 C 71.710938 59.238281 71.921875 55.21875 72.835938 51.359375 C 70.953125 50.453125 69.070312 49.558594 67.191406 48.648438 C 65.757812 47.96875 65.105469 46.078125 65.824219 44.660156 C 66.941406 42.257812 68.082031 39.871094 69.238281 37.496094 C 69.917969 36.058594 71.78125 35.40625 73.207031 36.097656 C 75.101562 36.953125 76.949219 37.910156 78.835938 38.773438 C 81.265625 35.644531 84.238281 32.933594 87.613281 30.867188 C 86.929688 28.855469 86.160156 26.863281 85.511719 24.832031 Z M 96.542969 41.578125 C 91.027344 44.179688 86.96875 49.574219 85.929688 55.582031 C 85.074219 60.289062 86.074219 65.289062 88.628906 69.328125 C 91.289062 73.566406 95.675781 76.648438 100.535156 77.785156 C 105.507812 78.953125 110.976562 78.085938 115.253906 75.265625 C 119.519531 72.632812 122.578125 68.199219 123.703125 63.332031 C 124.8125 58.644531 124.074219 53.53125 121.648438 49.367188 C 119.027344 44.722656 114.371094 41.285156 109.164062 40.144531 C 104.957031 39.136719 100.4375 39.730469 96.542969 41.578125 Z M 96.542969 41.578125 " fill-opacity="1" fill-rule="nonzero"/></g><g clip-path="url(#12729f327a)"><path fill="#cbdcea" d="M 50.710938 74.222656 C 50.296875 72.957031 51.082031 71.5 52.324219 71.074219 C 54.039062 70.40625 55.789062 69.851562 57.511719 69.214844 C 58.34375 68.925781 59.222656 68.515625 60.121094 68.734375 C 61.03125 68.917969 61.773438 69.628906 62.050781 70.511719 C 62.648438 72.136719 63.199219 73.785156 63.785156 75.414062 C 67.160156 74.96875 70.609375 75.195312 73.921875 75.945312 C 74.722656 74.300781 75.460938 72.617188 76.300781 70.992188 C 76.945312 69.769531 78.589844 69.335938 79.789062 69.980469 C 81.824219 70.957031 83.878906 71.902344 85.894531 72.921875 C 87.101562 73.53125 87.582031 75.160156 86.960938 76.351562 C 86.199219 77.929688 85.46875 79.519531 84.691406 81.09375 C 87.367188 83.203125 89.683594 85.757812 91.488281 88.660156 C 93.132812 88.082031 94.761719 87.476562 96.414062 86.921875 C 97.664062 86.410156 99.242188 87.054688 99.726562 88.324219 C 100.546875 90.503906 101.308594 92.710938 102.0625 94.910156 C 102.542969 96.210938 101.746094 97.765625 100.433594 98.171875 C 98.785156 98.777344 97.121094 99.339844 95.46875 99.9375 C 95.886719 103.320312 95.6875 106.769531 94.929688 110.089844 C 96.554688 110.890625 98.210938 111.613281 99.820312 112.441406 C 101.019531 113.035156 101.53125 114.621094 100.953125 115.816406 C 99.984375 117.867188 99.007812 119.917969 98.019531 121.960938 C 97.472656 123.171875 95.90625 123.777344 94.695312 123.214844 C 93.046875 122.472656 91.429688 121.65625 89.789062 120.878906 C 87.675781 123.546875 85.128906 125.878906 82.242188 127.683594 C 82.816406 129.378906 83.464844 131.054688 84.019531 132.761719 C 84.480469 134.054688 83.699219 135.621094 82.375 136.011719 C 80.265625 136.765625 78.152344 137.515625 76.035156 138.257812 C 74.789062 138.742188 73.246094 138.035156 72.796875 136.78125 C 72.160156 135.101562 71.582031 133.394531 71 131.699219 C 67.613281 132.046875 64.167969 131.90625 60.84375 131.128906 C 60.03125 132.765625 59.296875 134.445312 58.460938 136.066406 C 57.851562 137.273438 56.222656 137.757812 55.039062 137.121094 C 53 136.152344 50.949219 135.1875 48.925781 134.1875 C 47.765625 133.625 47.191406 132.125 47.714844 130.933594 C 48.445312 129.261719 49.292969 127.632812 50.066406 125.976562 C 47.378906 123.875 45.066406 121.3125 43.273438 118.414062 C 41.589844 119.003906 39.914062 119.625 38.226562 120.191406 C 36.980469 120.65625 35.449219 119.960938 35.003906 118.703125 C 34.21875 116.589844 33.496094 114.453125 32.746094 112.332031 C 32.195312 111.027344 32.914062 109.363281 34.273438 108.925781 C 35.933594 108.296875 37.625 107.746094 39.296875 107.136719 C 38.871094 103.761719 39.054688 100.3125 39.835938 97 C 38.21875 96.21875 36.605469 95.453125 34.992188 94.671875 C 33.761719 94.089844 33.199219 92.464844 33.816406 91.246094 C 34.777344 89.183594 35.757812 87.136719 36.75 85.097656 C 37.332031 83.863281 38.929688 83.304688 40.15625 83.898438 C 41.78125 84.632812 43.367188 85.453125 44.988281 86.195312 C 47.074219 83.511719 49.625 81.183594 52.523438 79.410156 C 51.933594 77.679688 51.273438 75.96875 50.714844 74.226562 Z M 60.1875 88.601562 C 55.453125 90.835938 51.96875 95.464844 51.078125 100.621094 C 50.339844 104.664062 51.199219 108.953125 53.394531 112.421875 C 55.675781 116.058594 59.441406 118.707031 63.613281 119.679688 C 67.882812 120.679688 72.574219 119.941406 76.246094 117.515625 C 79.910156 115.257812 82.535156 111.453125 83.5 107.273438 C 84.453125 103.25 83.820312 98.859375 81.734375 95.285156 C 79.484375 91.300781 75.492188 88.347656 71.019531 87.371094 C 67.40625 86.503906 63.53125 87.015625 60.1875 88.601562 Z M 60.1875 88.601562 " fill-opacity="1" fill-rule="nonzero"/></g></svg>